<svg xmlns="http://www.w3.org/2000/svg" xmlns:xlink="http://www.w3.org/1999/xlink" version="1.1" width="1000" height="1000" viewBox="0 0 1000 1000" xml:space="preserve">
<desc>Created with Fabric.js 3.5.0</desc>
<defs>
</defs>
<rect x="0" y="0" width="100%" height="100%" fill="#ffffff"/>
<g transform="matrix(0.0313 0 0 0.0313 112.52 112.52)" id="719384">
<g style="" vector-effect="non-scaling-stroke">
		<g transform="matrix(16.6667 0 0 16.6667 0.0006 33.334)">
<path style="stroke: none; stroke-width: 1; stroke-dasharray: none; stroke-linecap: butt; stroke-dashoffset: 0; stroke-linejoin: miter; stroke-miterlimit: 4; is-custom-font: none; font-file-url: none; fill: rgb(161,115,251); fill-rule: nonzero; opacity: 1;" transform=" translate(-24, -26)" d="M 37 40 H 11 l -6 6 V 12 c 0 -3.3 2.7 -6 6 -6 h 26 c 3.3 0 6 2.7 6 6 v 22 C 43 37.3 40.3 40 37 40 z" stroke-linecap="round"/>
</g>
		<g transform="matrix(16.6667 0 0 16.6667 0 25.0002)">
<rect style="stroke: none; stroke-width: 1; stroke-dasharray: none; stroke-linecap: butt; stroke-dashoffset: 0; stroke-linejoin: miter; stroke-miterlimit: 4; is-custom-font: none; font-file-url: none; fill: rgb(255,255,255); fill-rule: nonzero; opacity: 1;" x="-2" y="-5.5" rx="0" ry="0" width="4" height="11"/>
</g>
		<g transform="matrix(16.6667 0 0 16.6667 0 -150)">
<circle style="stroke: none; stroke-width: 1; stroke-dasharray: none; stroke-linecap: butt; stroke-dashoffset: 0; stroke-linejoin: miter; stroke-miterlimit: 4; is-custom-font: none; font-file-url: none; fill: rgb(255,255,255); fill-rule: nonzero; opacity: 1;" cx="0" cy="0" r="2"/>
</g>
</g>
</g>
</svg>