<svg xmlns="http://www.w3.org/2000/svg" xmlns:xlink="http://www.w3.org/1999/xlink" version="1.1" width="1000" height="1000" viewBox="0 0 1000 1000" xml:space="preserve">
<desc>Created with Fabric.js 3.5.0</desc>
<defs>
</defs>
<rect x="0" y="0" width="100%" height="100%" fill="#ffffff"/>
<g transform="matrix(0.125 0 0 0.125 150 150)" id="248932">
<g style="" vector-effect="non-scaling-stroke">
		<g transform="matrix(40 0 0 40 -40 212.2)" id="secondary">
<path style="stroke: none; stroke-width: 1; stroke-dasharray: none; stroke-linecap: butt; stroke-dashoffset: 0; stroke-linejoin: miter; stroke-miterlimit: 4; is-custom-font: none; font-file-url: none; fill: rgb(161,115,251); fill-rule: nonzero; opacity: 1;" transform=" translate(-11, -17.305)" d="M 14.84 13.61 a 6 6 0 0 1 -7.68 0 A 7 7 0 0 0 3 20 a 1 1 0 0 0 1 1 H 18 a 1 1 0 0 0 1 -1 a 7 7 0 0 0 -4.16 -6.39 Z" stroke-linecap="round"/>
</g>
		<g transform="matrix(40 0 0 40 280 -280)" id="primary">
<path style="stroke: rgb(0,0,0); stroke-width: 2; stroke-dasharray: none; stroke-linecap: round; stroke-dashoffset: 0; stroke-linejoin: round; stroke-miterlimit: 4; is-custom-font: none; font-file-url: none; fill: none; fill-rule: nonzero; opacity: 1;" transform=" translate(-19, -5)" d="M 17 5 h 4 M 19 3 V 7" stroke-linecap="round"/>
</g>
		<g transform="matrix(40 0 0 40 -47.1451 -119.9823)" id="primary-2">
<path style="stroke: rgb(0,0,0); stroke-width: 2; stroke-dasharray: none; stroke-linecap: round; stroke-dashoffset: 0; stroke-linejoin: round; stroke-miterlimit: 4; is-custom-font: none; font-file-url: none; fill: none; fill-rule: nonzero; opacity: 1;" transform=" translate(-10.8214, -9.0004)" d="M 16.65 11 A 6 6 0 1 1 11 3 a 5.8 5.8 0 0 1 2 0.35" stroke-linecap="round"/>
</g>
		<g transform="matrix(40 0 0 40 -40 215.2)" id="primary-3">
<path style="stroke: rgb(0,0,0); stroke-width: 2; stroke-dasharray: none; stroke-linecap: round; stroke-dashoffset: 0; stroke-linejoin: round; stroke-miterlimit: 4; is-custom-font: none; font-file-url: none; fill: none; fill-rule: nonzero; opacity: 1;" transform=" translate(-11, -17.38)" d="M 6.81 13.77 A 7 7 0 0 0 3 20 a 1 1 0 0 0 1 1 H 18 a 1 1 0 0 0 1 -1 a 7 7 0 0 0 -3.84 -6.24" stroke-linecap="round"/>
</g>
</g>
</g>
</svg>