<svg xmlns="http://www.w3.org/2000/svg" xmlns:xlink="http://www.w3.org/1999/xlink" version="1.1" width="1000" height="1000" viewBox="0 0 1000 1000" xml:space="preserve">
<desc>Created with Fabric.js 3.5.0</desc>
<defs>
</defs>
<rect x="0" y="0" width="100%" height="100%" fill="#ffffff"/>
<g transform="matrix(0.2857 0 0 0.2857 449.999 449.999)" id="195906">
<g style="" vector-effect="non-scaling-stroke">
		<g transform="matrix(5.8333 0 0 5.8333 0.004 -14.5544)" id="SVGRepo_tracerCarrier">
<path style="stroke: rgb(255,255,255); stroke-width: 1.5; stroke-dasharray: none; stroke-linecap: round; stroke-dashoffset: 0; stroke-linejoin: round; stroke-miterlimit: 4; is-custom-font: none; font-file-url: none; fill: none; fill-rule: nonzero; opacity: 0.4;" transform=" translate(-12.0007, -9.505)" d="M 12.1207 12.78 C 12.0507 12.77 11.9607 12.77 11.8807 12.78 C 10.1207 12.72 8.7207 11.28 8.7207 9.50998 C 8.7207 7.69998 10.1807 6.22998 12.0007 6.22998 C 13.8107 6.22998 15.2807 7.69998 15.2807 9.50998 C 15.2707 11.28 13.8807 12.72 12.1207 12.78 Z" stroke-linecap="round"/>
</g>
		<g transform="matrix(5.8333 0 0 5.8333 -0.0015 39.1859)" id="SVGRepo_tracerCarrier">
<path style="stroke: rgb(255,255,255); stroke-width: 1.5; stroke-dasharray: none; stroke-linecap: round; stroke-dashoffset: 0; stroke-linejoin: round; stroke-miterlimit: 4; is-custom-font: none; font-file-url: none; fill: none; fill-rule: nonzero; opacity: 0.34;" transform=" translate(-11.9998, -18.7176)" d="M 18.7398 19.3801 C 16.9598 21.0101 14.5998 22.0001 11.9998 22.0001 C 9.39977 22.0001 7.03977 21.0101 5.25977 19.3801 C 5.35977 18.4401 5.95977 17.5201 7.02977 16.8001 C 9.76977 14.9801 14.2498 14.9801 16.9698 16.8001 C 18.0398 17.5201 18.6398 18.4401 18.7398 19.3801 Z" stroke-linecap="round"/>
</g>
		<g transform="matrix(5.8333 0 0 5.8333 -0.0003 -0.0003)" id="SVGRepo_tracerCarrier">
<path style="stroke: rgb(255,255,255); stroke-width: 1.5; stroke-dasharray: none; stroke-linecap: round; stroke-dashoffset: 0; stroke-linejoin: round; stroke-miterlimit: 4; is-custom-font: none; font-file-url: none; fill: none; fill-rule: nonzero; opacity: 1;" transform=" translate(-12, -12)" d="M 12 22 C 17.5228 22 22 17.5228 22 12 C 22 6.47715 17.5228 2 12 2 C 6.47715 2 2 6.47715 2 12 C 2 17.5228 6.47715 22 12 22 Z" stroke-linecap="round"/>
</g>
		<g transform="matrix(5.8333 0 0 5.8333 0.0038 -14.5545)" id="SVGRepo_iconCarrier">
<path style="stroke: rgb(255,255,255); stroke-width: 0.0002; stroke-dasharray: none; stroke-linecap: round; stroke-dashoffset: 0; stroke-linejoin: round; stroke-miterlimit: 4; is-custom-font: none; font-file-url: none; fill: none; fill-rule: nonzero; opacity: 0.4;" transform=" translate(-12.0007, -9.505)" d="M 12.1207 12.78 C 12.0507 12.77 11.9607 12.77 11.8807 12.78 C 10.1207 12.72 8.7207 11.28 8.7207 9.50998 C 8.7207 7.69998 10.1807 6.22998 12.0007 6.22998 C 13.8107 6.22998 15.2807 7.69998 15.2807 9.50998 C 15.2707 11.28 13.8807 12.72 12.1207 12.78 Z" stroke-linecap="round"/>
</g>
		<g transform="matrix(5.8333 0 0 5.8333 -0.0016 39.1858)" id="SVGRepo_iconCarrier">
<path style="stroke: rgb(255,255,255); stroke-width: 0.0002; stroke-dasharray: none; stroke-linecap: round; stroke-dashoffset: 0; stroke-linejoin: round; stroke-miterlimit: 4; is-custom-font: none; font-file-url: none; fill: none; fill-rule: nonzero; opacity: 0.34;" transform=" translate(-11.9998, -18.7176)" d="M 18.7398 19.3801 C 16.9598 21.0101 14.5998 22.0001 11.9998 22.0001 C 9.39977 22.0001 7.03977 21.0101 5.25977 19.3801 C 5.35977 18.4401 5.95977 17.5201 7.02977 16.8001 C 9.76977 14.9801 14.2498 14.9801 16.9698 16.8001 C 18.0398 17.5201 18.6398 18.4401 18.7398 19.3801 Z" stroke-linecap="round"/>
</g>
		<g transform="matrix(5.8333 0 0 5.8333 -0.0004 -0.0004)" id="SVGRepo_iconCarrier">
<path style="stroke: rgb(255,255,255); stroke-width: 0.0002; stroke-dasharray: none; stroke-linecap: round; stroke-dashoffset: 0; stroke-linejoin: round; stroke-miterlimit: 4; is-custom-font: none; font-file-url: none; fill: none; fill-rule: nonzero; opacity: 1;" transform=" translate(-12, -12)" d="M 12 22 C 17.5228 22 22 17.5228 22 12 C 22 6.47715 17.5228 2 12 2 C 6.47715 2 2 6.47715 2 12 C 2 17.5228 6.47715 22 12 22 Z" stroke-linecap="round"/>
</g>
</g>
</g>
<g transform="matrix(2 0 0 2.6667 493.3334 500.0003)" id="435806">
<path style="stroke: none; stroke-width: 1; stroke-dasharray: none; stroke-linecap: butt; stroke-dashoffset: 0; stroke-linejoin: miter; stroke-miterlimit: 4; is-custom-font: none; font-file-url: none; fill: rgb(161,115,251); fill-rule: evenodd; opacity: 1;" vector-effect="non-scaling-stroke" transform=" translate(-11.9999, -11.5015)" d="M 20.2945 10.2859 C 20.7902 9.92214 21.0574 9.45283 21.0664 8.97375 C 21.0816 8.16429 20.5363 6.69501 17.0509 5.11295 C 13.6314 3.56077 10.5872 3.53726 6.82663 5.05965 C 4.93161 5.82682 3.97528 6.57481 3.48588 7.21208 C 3.01022 7.83146 2.94264 8.38826 2.93337 8.88161 C 2.9244 9.35906 3.17218 9.82678 3.64976 10.1928 C 4.12797 10.5593 4.81609 10.8029 5.60244 10.8074 C 5.93623 10.8093 6.13734 10.7119 6.27526 10.5821 C 6.42474 10.4413 6.54227 10.2219 6.62538 9.91601 C 6.76979 9.38451 6.77652 8.7431 6.78289 8.13614 C 6.78409 8.02235 6.78527 7.90977 6.78734 7.79935 C 6.78906 7.70788 6.81763 7.61894 6.86949 7.54358 C 7.36255 6.82713 8.23012 6.3416 9.18455 6.03524 C 10.151 5.72502 11.2715 5.57726 12.3545 5.58348 C 13.4356 5.5897 14.5087 5.74954 15.3756 6.07683 C 16.224 6.39712 16.98 6.92037 17.2321 7.72316 C 17.2472 7.7712 17.2544 7.82136 17.2534 7.87171 C 17.2513 7.98221 17.2483 8.09484 17.2452 8.20866 C 17.2288 8.81566 17.2115 9.45646 17.3357 9.9887 C 17.4072 10.295 17.5157 10.5125 17.6565 10.6516 C 17.7854 10.779 17.9792 10.8786 18.3131 10.8805 C 19.0994 10.885 19.7991 10.6494 20.2945 10.2859 Z M 20.8466 11.0383 C 20.1757 11.5306 19.2765 11.8193 18.3078 11.8137 C 17.7642 11.8106 17.3257 11.6367 17.0006 11.3154 C 16.6874 11.006 16.52 10.5998 16.4269 10.2008 C 16.2724 9.53878 16.2952 8.75135 16.3127 8.15161 C 16.3148 8.07727 16.3169 8.00581 16.3186 7.93783 C 16.1715 7.57024 15.7583 7.21883 15.046 6.9499 C 14.3104 6.67219 13.3535 6.52246 12.3492 6.51669 C 11.3469 6.51092 10.3267 6.64873 9.46977 6.92381 C 8.66742 7.18135 8.06136 7.54164 7.71829 7.96564 L 7.71691 8.11454 C 7.71179 8.71447 7.70507 9.50141 7.52595 10.1607 C 7.41799 10.558 7.23631 10.959 6.91498 11.2615 C 6.58209 11.5749 6.14078 11.7437 5.59707 11.7406 C 4.62845 11.735 3.73775 11.436 3.08207 10.9335 C 2.42575 10.4305 1.98457 9.70266 2.00032 8.86409 C 2.01156 8.26529 2.10157 7.48248 2.74574 6.64368 C 3.37617 5.82276 4.50193 4.99397 6.47644 4.19463 C 10.4549 2.58402 13.7661 2.59707 17.4366 4.26318 C 21.0414 5.89941 22.0252 7.61643 21.9994 8.99128 C 21.9837 9.82822 21.5171 10.5463 20.8466 11.0383 Z M 8.31041 10.6638 C 8.31041 9.34234 9.38165 8.2711 10.7031 8.2711 H 13.3835 C 14.7049 8.2711 15.7762 9.34234 15.7762 10.6638 C 15.7762 11.2346 16.1414 11.7414 16.6829 11.9219 L 17.1526 12.0784 C 18.2414 12.4414 18.9758 13.4603 18.9758 14.6079 V 17.3366 C 18.9758 18.8092 17.782 20.003 16.3094 20.003 H 7.77714 C 6.30457 20.003 5.11081 18.8092 5.11081 17.3366 V 14.6079 C 5.11081 13.4603 5.8452 12.4414 6.93397 12.0784 L 7.40363 11.9219 C 7.94515 11.7414 8.31041 11.2346 8.31041 10.6638 Z M 10.7031 9.33764 C 9.97068 9.33764 9.37695 9.93137 9.37695 10.6638 C 9.37695 11.6937 8.71793 12.608 7.7409 12.9337 L 7.27124 13.0902 C 6.61797 13.308 6.17734 13.9193 6.17734 14.6079 V 17.3366 C 6.17734 18.2202 6.8936 18.9365 7.77714 18.9365 H 16.3094 C 17.193 18.9365 17.9092 18.2202 17.9092 17.3366 V 14.6079 C 17.9092 13.9193 17.4686 13.308 16.8153 13.0902 L 16.3457 12.9337 C 15.3686 12.608 14.7096 11.6937 14.7096 10.6638 C 14.7096 9.93137 14.1159 9.33764 13.3835 9.33764 H 10.7031 Z M 10.4434 15.2035 C 10.4434 14.32 11.1597 13.6037 12.0432 13.6037 C 12.9268 13.6037 13.643 14.32 13.643 15.2035 C 13.643 16.0871 12.9268 16.8033 12.0432 16.8033 C 11.1597 16.8033 10.4434 16.0871 10.4434 15.2035 Z M 12.0432 12.5372 C 10.5706 12.5372 9.37687 13.7309 9.37687 15.2035 C 9.37687 16.6761 10.5706 17.8699 12.0432 17.8699 C 13.5158 17.8699 14.7095 16.6761 14.7095 15.2035 C 14.7095 13.7309 13.5158 12.5372 12.0432 12.5372 Z" stroke-linecap="round"/>
</g>
</svg>