<svg xmlns="http://www.w3.org/2000/svg" xmlns:xlink="http://www.w3.org/1999/xlink" version="1.1" width="1000" height="1000" viewBox="0 0 1000 1000" xml:space="preserve">
<desc>Created with Fabric.js 3.5.0</desc>
<defs>
</defs>
<rect x="0" y="0" width="100%" height="100%" fill="#ffffff"/>
<g transform="matrix(0.2857 0 0 0.2857 449.999 449.999)" id="195906">
<g style="" vector-effect="non-scaling-stroke">
		<g transform="matrix(5.8333 0 0 5.8333 0.004 -14.5544)" id="SVGRepo_tracerCarrier">
<path style="stroke: rgb(255,255,255); stroke-width: 1.5; stroke-dasharray: none; stroke-linecap: round; stroke-dashoffset: 0; stroke-linejoin: round; stroke-miterlimit: 4; is-custom-font: none; font-file-url: none; fill: none; fill-rule: nonzero; opacity: 0.4;" transform=" translate(-12.0007, -9.505)" d="M 12.1207 12.78 C 12.0507 12.77 11.9607 12.77 11.8807 12.78 C 10.1207 12.72 8.7207 11.28 8.7207 9.50998 C 8.7207 7.69998 10.1807 6.22998 12.0007 6.22998 C 13.8107 6.22998 15.2807 7.69998 15.2807 9.50998 C 15.2707 11.28 13.8807 12.72 12.1207 12.78 Z" stroke-linecap="round"/>
</g>
		<g transform="matrix(5.8333 0 0 5.8333 -0.0015 39.1859)" id="SVGRepo_tracerCarrier">
<path style="stroke: rgb(255,255,255); stroke-width: 1.5; stroke-dasharray: none; stroke-linecap: round; stroke-dashoffset: 0; stroke-linejoin: round; stroke-miterlimit: 4; is-custom-font: none; font-file-url: none; fill: none; fill-rule: nonzero; opacity: 0.34;" transform=" translate(-11.9998, -18.7176)" d="M 18.7398 19.3801 C 16.9598 21.0101 14.5998 22.0001 11.9998 22.0001 C 9.39977 22.0001 7.03977 21.0101 5.25977 19.3801 C 5.35977 18.4401 5.95977 17.5201 7.02977 16.8001 C 9.76977 14.9801 14.2498 14.9801 16.9698 16.8001 C 18.0398 17.5201 18.6398 18.4401 18.7398 19.3801 Z" stroke-linecap="round"/>
</g>
		<g transform="matrix(5.8333 0 0 5.8333 -0.0003 -0.0003)" id="SVGRepo_tracerCarrier">
<path style="stroke: rgb(255,255,255); stroke-width: 1.5; stroke-dasharray: none; stroke-linecap: round; stroke-dashoffset: 0; stroke-linejoin: round; stroke-miterlimit: 4; is-custom-font: none; font-file-url: none; fill: none; fill-rule: nonzero; opacity: 1;" transform=" translate(-12, -12)" d="M 12 22 C 17.5228 22 22 17.5228 22 12 C 22 6.47715 17.5228 2 12 2 C 6.47715 2 2 6.47715 2 12 C 2 17.5228 6.47715 22 12 22 Z" stroke-linecap="round"/>
</g>
		<g transform="matrix(5.8333 0 0 5.8333 0.0038 -14.5545)" id="SVGRepo_iconCarrier">
<path style="stroke: rgb(255,255,255); stroke-width: 0.0002; stroke-dasharray: none; stroke-linecap: round; stroke-dashoffset: 0; stroke-linejoin: round; stroke-miterlimit: 4; is-custom-font: none; font-file-url: none; fill: none; fill-rule: nonzero; opacity: 0.4;" transform=" translate(-12.0007, -9.505)" d="M 12.1207 12.78 C 12.0507 12.77 11.9607 12.77 11.8807 12.78 C 10.1207 12.72 8.7207 11.28 8.7207 9.50998 C 8.7207 7.69998 10.1807 6.22998 12.0007 6.22998 C 13.8107 6.22998 15.2807 7.69998 15.2807 9.50998 C 15.2707 11.28 13.8807 12.72 12.1207 12.78 Z" stroke-linecap="round"/>
</g>
		<g transform="matrix(5.8333 0 0 5.8333 -0.0016 39.1858)" id="SVGRepo_iconCarrier">
<path style="stroke: rgb(255,255,255); stroke-width: 0.0002; stroke-dasharray: none; stroke-linecap: round; stroke-dashoffset: 0; stroke-linejoin: round; stroke-miterlimit: 4; is-custom-font: none; font-file-url: none; fill: none; fill-rule: nonzero; opacity: 0.34;" transform=" translate(-11.9998, -18.7176)" d="M 18.7398 19.3801 C 16.9598 21.0101 14.5998 22.0001 11.9998 22.0001 C 9.39977 22.0001 7.03977 21.0101 5.25977 19.3801 C 5.35977 18.4401 5.95977 17.5201 7.02977 16.8001 C 9.76977 14.9801 14.2498 14.9801 16.9698 16.8001 C 18.0398 17.5201 18.6398 18.4401 18.7398 19.3801 Z" stroke-linecap="round"/>
</g>
		<g transform="matrix(5.8333 0 0 5.8333 -0.0004 -0.0004)" id="SVGRepo_iconCarrier">
<path style="stroke: rgb(255,255,255); stroke-width: 0.0002; stroke-dasharray: none; stroke-linecap: round; stroke-dashoffset: 0; stroke-linejoin: round; stroke-miterlimit: 4; is-custom-font: none; font-file-url: none; fill: none; fill-rule: nonzero; opacity: 1;" transform=" translate(-12, -12)" d="M 12 22 C 17.5228 22 22 17.5228 22 12 C 22 6.47715 17.5228 2 12 2 C 6.47715 2 2 6.47715 2 12 C 2 17.5228 6.47715 22 12 22 Z" stroke-linecap="round"/>
</g>
</g>
</g>
<g transform="matrix(0.4902 0 0 0.4902 474.0002 474.0002)" id="733530">
<g style="" vector-effect="non-scaling-stroke">
		<g transform="matrix(0.0996 0 0 0.0996 -0.1813 -38.5794)" id="SVGRepo_iconCarrier">
<path style="stroke: none; stroke-width: 1; stroke-dasharray: none; stroke-linecap: butt; stroke-dashoffset: 0; stroke-linejoin: miter; stroke-miterlimit: 4; is-custom-font: none; font-file-url: none; fill: rgb(250,252,251); fill-rule: nonzero; opacity: 1;" transform=" translate(-510.2, -124.7)" d="M 724.3 198 H 296.1 l 54.1 -146.6 h 320 z" stroke-linecap="round"/>
</g>
		<g transform="matrix(0.0996 0 0 0.0996 -0.1814 -38.5796)" id="SVGRepo_iconCarrier">
<path style="stroke: none; stroke-width: 1; stroke-dasharray: none; stroke-linecap: butt; stroke-dashoffset: 0; stroke-linejoin: miter; stroke-miterlimit: 4; is-custom-font: none; font-file-url: none; fill: rgb(15,15,15); fill-rule: nonzero; opacity: 1;" transform=" translate(-510.2, -124.7)" d="M 724.3 216.5 H 296.1 c -6.1 0 -11.7 -3 -15.2 -7.9 c -3.5 -5 -4.3 -11.3 -2.2 -17 L 332.8 45 c 2.7 -7.3 9.6 -12.1 17.4 -12.1 h 320 c 7.7 0 14.7 4.8 17.4 12.1 l 54.1 146.6 c 2.1 5.7 1.3 12 -2.2 17 c -3.5 4.9 -9.2 7.9 -15.2 7.9 z m -401.6 -37 h 375.1 L 657.3 69.9 H 363.1 l -40.4 109.6 z" stroke-linecap="round"/>
</g>
		<g transform="matrix(0.0996 0 0 0.0996 -0.187 9.5889)" id="SVGRepo_iconCarrier">
<path style="stroke: none; stroke-width: 1; stroke-dasharray: none; stroke-linecap: butt; stroke-dashoffset: 0; stroke-linejoin: miter; stroke-miterlimit: 4; is-custom-font: none; font-file-url: none; fill: rgb(255,255,255); fill-rule: nonzero; opacity: 1;" transform=" translate(-510.15, -608.3)" d="M 664.3 981.6 H 339.7 c -54.2 0 -98.5 -43.3 -99.6 -97.5 L 223.7 235 h 572.9 l -32.8 651.4 c -2.3 53.2 -46.1 95.2 -99.5 95.2 z" stroke-linecap="round"/>
</g>
		<g transform="matrix(0.0996 0 0 0.0996 -0.1671 9.5887)" id="SVGRepo_iconCarrier">
<path style="stroke: none; stroke-width: 1; stroke-dasharray: none; stroke-linecap: butt; stroke-dashoffset: 0; stroke-linejoin: miter; stroke-miterlimit: 4; is-custom-font: none; font-file-url: none; fill: rgb(25,25,25); fill-rule: nonzero; opacity: 1;" transform=" translate(-510.35, -608.3)" d="M 664.3 995 H 339.7 c -29.7 0 -57.8 -11.4 -79 -32.2 c -21.2 -20.8 -33.3 -48.6 -34 -78.3 L 210 221.6 h 600.7 L 777.2 887 c -2.6 60.5 -52.2 108 -112.9 108 z M 237.4 248.3 l 16 635.5 c 0.5 22.7 9.7 44 25.9 59.8 c 16.2 15.9 37.7 24.6 60.4 24.6 h 324.6 c 46.3 0 84.2 -36.2 86.2 -82.5 l 32.1 -637.4 H 237.4 z" stroke-linecap="round"/>
</g>
		<g transform="matrix(0.0996 0 0 0.0996 -0.1826 -31.2777)" id="SVGRepo_iconCarrier">
<path style="stroke: none; stroke-width: 1; stroke-dasharray: none; stroke-linecap: butt; stroke-dashoffset: 0; stroke-linejoin: miter; stroke-miterlimit: 4; is-custom-font: none; font-file-url: none; fill: rgb(161,115,251); fill-rule: nonzero; opacity: 1;" transform=" translate(-510.2, -198)" d="M 827.1 239.5 H 193.3 c -22.2 0 -40.4 -18.2 -40.4 -40.4 v -2.2 c 0 -22.2 18.2 -40.4 40.4 -40.4 h 633.8 c 22.2 0 40.4 18.2 40.4 40.4 v 2.2 c 0 22.2 -18.2 40.4 -40.4 40.4 z" stroke-linecap="round"/>
</g>
		<g transform="matrix(0.0996 0 0 0.0996 -0.1828 -31.2779)" id="SVGRepo_iconCarrier">
<path style="stroke: none; stroke-width: 1; stroke-dasharray: none; stroke-linecap: butt; stroke-dashoffset: 0; stroke-linejoin: miter; stroke-miterlimit: 4; is-custom-font: none; font-file-url: none; fill: rgb(17,17,17); fill-rule: nonzero; opacity: 1;" transform=" translate(-510.2, -198)" d="M 826 252.9 H 194.4 c -30.3 0 -54.9 -24.6 -54.9 -54.9 c 0 -30.3 24.6 -54.9 54.9 -54.9 H 826 c 30.3 0 54.9 24.6 54.9 54.9 s -24.7 54.9 -54.9 54.9 z m -631.6 -83.1 c -15.5 0 -28.2 12.6 -28.2 28.2 s 12.6 28.2 28.2 28.2 H 826 c 15.5 0 28.2 -12.6 28.2 -28.2 c 0 -15.5 -12.6 -28.2 -28.2 -28.2 H 194.4 z" stroke-linecap="round"/>
</g>
		<g transform="matrix(0.0996 0 0 0.0996 -15.6785 10.268)" id="SVGRepo_iconCarrier">
<path style="stroke: none; stroke-width: 1; stroke-dasharray: none; stroke-linecap: butt; stroke-dashoffset: 0; stroke-linejoin: miter; stroke-miterlimit: 4; is-custom-font: none; font-file-url: none; fill: rgb(250,252,251); fill-rule: nonzero; opacity: 1;" transform=" translate(-354.6, -615.1)" d="M 354.6 430.3 v 369.6" stroke-linecap="round"/>
</g>
		<g transform="matrix(0.0996 0 0 0.0996 -15.6787 10.2678)" id="SVGRepo_iconCarrier">
<path style="stroke: none; stroke-width: 1; stroke-dasharray: none; stroke-linecap: butt; stroke-dashoffset: 0; stroke-linejoin: miter; stroke-miterlimit: 4; is-custom-font: none; font-file-url: none; fill: rgb(15,15,15); fill-rule: nonzero; opacity: 1;" transform=" translate(-354.6, -615.1)" d="M 354.6 813.3 c -7.4 0 -13.4 -6 -13.4 -13.4 V 430.3 c 0 -7.4 6 -13.4 13.4 -13.4 s 13.4 6 13.4 13.4 v 369.6 c -0.1 7.4 -6 13.4 -13.4 13.4 z" stroke-linecap="round"/>
</g>
		<g transform="matrix(0.0996 0 0 0.0996 -5.349 10.268)" id="SVGRepo_iconCarrier">
<path style="stroke: none; stroke-width: 1; stroke-dasharray: none; stroke-linecap: butt; stroke-dashoffset: 0; stroke-linejoin: miter; stroke-miterlimit: 4; is-custom-font: none; font-file-url: none; fill: rgb(250,252,251); fill-rule: nonzero; opacity: 1;" transform=" translate(-458.3, -615.1)" d="M 458.3 430.3 v 369.6" stroke-linecap="round"/>
</g>
		<g transform="matrix(0.0996 0 0 0.0996 -5.3492 10.2678)" id="SVGRepo_iconCarrier">
<path style="stroke: none; stroke-width: 1; stroke-dasharray: none; stroke-linecap: butt; stroke-dashoffset: 0; stroke-linejoin: miter; stroke-miterlimit: 4; is-custom-font: none; font-file-url: none; fill: rgb(15,15,15); fill-rule: nonzero; opacity: 1;" transform=" translate(-458.3, -615.1)" d="M 458.3 813.3 c -7.4 0 -13.4 -6 -13.4 -13.4 V 430.3 c 0 -7.4 6 -13.4 13.4 -13.4 s 13.4 6 13.4 13.4 v 369.6 c 0 7.4 -6 13.4 -13.4 13.4 z" stroke-linecap="round"/>
</g>
		<g transform="matrix(0.0996 0 0 0.0996 4.9904 10.268)" id="SVGRepo_iconCarrier">
<path style="stroke: none; stroke-width: 1; stroke-dasharray: none; stroke-linecap: butt; stroke-dashoffset: 0; stroke-linejoin: miter; stroke-miterlimit: 4; is-custom-font: none; font-file-url: none; fill: rgb(250,252,251); fill-rule: nonzero; opacity: 1;" transform=" translate(-562.1, -615.1)" d="M 562.1 430.3 v 369.6" stroke-linecap="round"/>
</g>
		<g transform="matrix(0.0996 0 0 0.0996 4.9903 10.2678)" id="SVGRepo_iconCarrier">
<path style="stroke: none; stroke-width: 1; stroke-dasharray: none; stroke-linecap: butt; stroke-dashoffset: 0; stroke-linejoin: miter; stroke-miterlimit: 4; is-custom-font: none; font-file-url: none; fill: rgb(15,15,15); fill-rule: nonzero; opacity: 1;" transform=" translate(-562.1, -615.1)" d="M 562.1 813.3 c -7.4 0 -13.4 -6 -13.4 -13.4 V 430.3 c 0 -7.4 6 -13.4 13.4 -13.4 s 13.4 6 13.4 13.4 v 369.6 c -0.1 7.4 -6.1 13.4 -13.4 13.4 z" stroke-linecap="round"/>
</g>
		<g transform="matrix(0.0996 0 0 0.0996 15.3199 10.268)" id="SVGRepo_iconCarrier">
<path style="stroke: none; stroke-width: 1; stroke-dasharray: none; stroke-linecap: butt; stroke-dashoffset: 0; stroke-linejoin: miter; stroke-miterlimit: 4; is-custom-font: none; font-file-url: none; fill: rgb(250,252,251); fill-rule: nonzero; opacity: 1;" transform=" translate(-665.8, -615.1)" d="M 665.8 430.3 v 369.6" stroke-linecap="round"/>
</g>
		<g transform="matrix(0.0996 0 0 0.0996 15.3198 10.2678)" id="SVGRepo_iconCarrier">
<path style="stroke: none; stroke-width: 1; stroke-dasharray: none; stroke-linecap: butt; stroke-dashoffset: 0; stroke-linejoin: miter; stroke-miterlimit: 4; is-custom-font: none; font-file-url: none; fill: rgb(15,15,15); fill-rule: nonzero; opacity: 1;" transform=" translate(-665.8, -615.1)" d="M 665.8 813.3 c -7.4 0 -13.4 -6 -13.4 -13.4 V 430.3 c 0 -7.4 6 -13.4 13.4 -13.4 s 13.4 6 13.4 13.4 v 369.6 c 0 7.4 -6 13.4 -13.4 13.4 z" stroke-linecap="round"/>
</g>
</g>
</g>
</svg>