<svg xmlns="http://www.w3.org/2000/svg" xmlns:xlink="http://www.w3.org/1999/xlink" version="1.1" width="1000" height="1000" viewBox="0 0 1000 1000" xml:space="preserve">
<desc>Created with Fabric.js 3.5.0</desc>
<defs>
</defs>
<rect x="0" y="0" width="100%" height="100%" fill="#920707"/>
<g transform="matrix(0.6977 0 0 0.6978 468.0443 468.0493)" id="77114">
<path style="stroke: none; stroke-width: 1; stroke-dasharray: none; stroke-linecap: butt; stroke-dashoffset: 0; stroke-linejoin: miter; stroke-miterlimit: 4; is-custom-font: none; font-file-url: none; fill: rgb(161,115,251); fill-rule: nonzero; opacity: 1;" vector-effect="non-scaling-stroke" transform=" translate(-31.665, -32.164)" d="M 31.67 3.50098 C 24.0687 3.50892 16.781 6.53205 11.406 11.907 C 6.03107 17.2819 3.00794 24.5697 3 32.171 C 3.00953 39.7705 6.03361 47.0559 11.4086 52.4282 C 16.7836 57.8006 24.0705 60.8212 31.67 60.827 C 39.2687 60.819 46.5538 57.797 51.9269 52.4239 C 57.3 47.0508 60.322 39.7656 60.33 32.167 C 60.321 24.5681 57.2988 17.2829 51.9261 11.9091 C 46.5534 6.53531 39.2689 3.51156 31.67 3.50098 Z M 41.78 41.327 L 32.79 47.317 L 32.78 47.327 C 32.4528 47.5499 32.0659 47.6684 31.67 47.667 C 31.2739 47.6699 30.8865 47.5512 30.56 47.327 L 30.39 47.207 L 21.56 41.327 C 21.1188 41.0336 20.812 40.5772 20.707 40.0578 C 20.602 39.5385 20.7074 38.9987 21 38.557 C 21.2956 38.1155 21.7537 37.8089 22.2746 37.7039 C 22.7954 37.599 23.3366 37.7044 23.78 37.997 L 29.67 41.927 V 18.667 C 29.6691 18.4041 29.7202 18.1436 29.8204 17.9005 C 29.9205 17.6574 30.0678 17.4366 30.2537 17.2507 C 30.4396 17.0648 30.6605 16.9175 30.9035 16.8173 C 31.1466 16.7172 31.4071 16.6661 31.67 16.667 C 32.2004 16.667 32.7091 16.8777 33.0842 17.2528 C 33.4593 17.6278 33.67 18.1365 33.67 18.667 V 41.927 L 39.56 37.997 C 40.0017 37.7044 40.5415 37.599 41.0608 37.704 C 41.5802 37.809 42.0366 38.1158 42.33 38.557 C 42.6236 38.9975 42.7305 39.5364 42.6274 40.0556 C 42.5243 40.5749 42.2196 41.032 41.78 41.327 Z" stroke-linecap="round"/>
</g>
</svg>