<svg xmlns="http://www.w3.org/2000/svg" xmlns:xlink="http://www.w3.org/1999/xlink" version="1.1" width="1000" height="1000" viewBox="0 0 1000 1000" xml:space="preserve">
<desc>Created with Fabric.js 3.5.0</desc>
<defs>
</defs>
<rect x="0" y="0" width="100%" height="100%" fill="#ffffff"/>
<g transform="matrix(1 0 0 1 500 500)" id="649105">
<g style="" vector-effect="non-scaling-stroke">
		<g transform="matrix(1 0 0 1 0 0)">
<path style="stroke: none; stroke-width: 1; stroke-dasharray: none; stroke-linecap: butt; stroke-dashoffset: 0; stroke-linejoin: miter; stroke-miterlimit: 4; is-custom-font: none; font-file-url: none; fill: rgb(161,115,251); fill-rule: nonzero; opacity: 0.2; visibility: hidden;" transform=" translate(-26, -26)" d="M 0 0 v 52 h 52 V 0 H 0 z M 49.9 49.9 H 2.1 V 2.1 h 47.8 C 49.9 2.1 49.9 49.9 49.9 49.9 z" stroke-linecap="round"/>
</g>
		<g transform="matrix(1 0 0 1 0 0)">
<rect style="stroke: none; stroke-width: 0.25; stroke-dasharray: none; stroke-linecap: butt; stroke-dashoffset: 0; stroke-linejoin: miter; stroke-miterlimit: 10; is-custom-font: none; font-file-url: none; fill: none; fill-rule: nonzero; opacity: 1; visibility: hidden;" x="-24" y="-24" rx="0" ry="0" width="48" height="48"/>
</g>
		<g transform="matrix(1 0 0 1 0 0)">
<line style="stroke: none; stroke-width: 0.25; stroke-dasharray: none; stroke-linecap: butt; stroke-dashoffset: 0; stroke-linejoin: miter; stroke-miterlimit: 10; is-custom-font: none; font-file-url: none; fill: none; fill-rule: nonzero; opacity: 0.5; visibility: hidden;" x1="24" y1="-24" x2="-24" y2="24"/>
</g>
		<g transform="matrix(1 0 0 1 -0.05 0)">
<line style="stroke: none; stroke-width: 0.25; stroke-dasharray: none; stroke-linecap: butt; stroke-dashoffset: 0; stroke-linejoin: miter; stroke-miterlimit: 10; is-custom-font: none; font-file-url: none; fill: none; fill-rule: nonzero; opacity: 0.5; visibility: hidden;" x1="-23.95" y1="-24" x2="23.95" y2="24"/>
</g>
		<g transform="matrix(1 0 0 1 -23 0)">
<rect style="stroke: none; stroke-width: 0.25; stroke-dasharray: none; stroke-linecap: butt; stroke-dashoffset: 0; stroke-linejoin: miter; stroke-miterlimit: 10; is-custom-font: none; font-file-url: none; fill: none; fill-rule: nonzero; opacity: 0.5; visibility: hidden;" x="-1" y="-24" rx="0" ry="0" width="2" height="48"/>
</g>
		<g transform="matrix(1 0 0 1 -21 0)">
<rect style="stroke: none; stroke-width: 0.25; stroke-dasharray: none; stroke-linecap: butt; stroke-dashoffset: 0; stroke-linejoin: miter; stroke-miterlimit: 10; is-custom-font: none; font-file-url: none; fill: none; fill-rule: nonzero; opacity: 0.5; visibility: hidden;" x="-1" y="-24" rx="0" ry="0" width="2" height="48"/>
</g>
		<g transform="matrix(1 0 0 1 -19 0)">
<rect style="stroke: none; stroke-width: 0.25; stroke-dasharray: none; stroke-linecap: butt; stroke-dashoffset: 0; stroke-linejoin: miter; stroke-miterlimit: 10; is-custom-font: none; font-file-url: none; fill: none; fill-rule: nonzero; opacity: 0.5; visibility: hidden;" x="-1" y="-24" rx="0" ry="0" width="2" height="48"/>
</g>
		<g transform="matrix(1 0 0 1 -17 0)">
<rect style="stroke: none; stroke-width: 0.25; stroke-dasharray: none; stroke-linecap: butt; stroke-dashoffset: 0; stroke-linejoin: miter; stroke-miterlimit: 10; is-custom-font: none; font-file-url: none; fill: none; fill-rule: nonzero; opacity: 0.5; visibility: hidden;" x="-1" y="-24" rx="0" ry="0" width="2" height="48"/>
</g>
		<g transform="matrix(1 0 0 1 -15 0)">
<rect style="stroke: none; stroke-width: 0.25; stroke-dasharray: none; stroke-linecap: butt; stroke-dashoffset: 0; stroke-linejoin: miter; stroke-miterlimit: 10; is-custom-font: none; font-file-url: none; fill: none; fill-rule: nonzero; opacity: 0.5; visibility: hidden;" x="-1" y="-24" rx="0" ry="0" width="2" height="48"/>
</g>
		<g transform="matrix(1 0 0 1 -13 0)">
<rect style="stroke: none; stroke-width: 0.25; stroke-dasharray: none; stroke-linecap: butt; stroke-dashoffset: 0; stroke-linejoin: miter; stroke-miterlimit: 10; is-custom-font: none; font-file-url: none; fill: none; fill-rule: nonzero; opacity: 0.5; visibility: hidden;" x="-1" y="-24" rx="0" ry="0" width="2" height="48"/>
</g>
		<g transform="matrix(1 0 0 1 -11 0)">
<rect style="stroke: none; stroke-width: 0.25; stroke-dasharray: none; stroke-linecap: butt; stroke-dashoffset: 0; stroke-linejoin: miter; stroke-miterlimit: 10; is-custom-font: none; font-file-url: none; fill: none; fill-rule: nonzero; opacity: 0.5; visibility: hidden;" x="-1" y="-24" rx="0" ry="0" width="2" height="48"/>
</g>
		<g transform="matrix(1 0 0 1 -9 0)">
<rect style="stroke: none; stroke-width: 0.25; stroke-dasharray: none; stroke-linecap: butt; stroke-dashoffset: 0; stroke-linejoin: miter; stroke-miterlimit: 10; is-custom-font: none; font-file-url: none; fill: none; fill-rule: nonzero; opacity: 0.5; visibility: hidden;" x="-1" y="-24" rx="0" ry="0" width="2" height="48"/>
</g>
		<g transform="matrix(1 0 0 1 -7 0)">
<rect style="stroke: none; stroke-width: 0.25; stroke-dasharray: none; stroke-linecap: butt; stroke-dashoffset: 0; stroke-linejoin: miter; stroke-miterlimit: 10; is-custom-font: none; font-file-url: none; fill: none; fill-rule: nonzero; opacity: 0.5; visibility: hidden;" x="-1" y="-24" rx="0" ry="0" width="2" height="48"/>
</g>
		<g transform="matrix(1 0 0 1 -5 0)">
<rect style="stroke: none; stroke-width: 0.25; stroke-dasharray: none; stroke-linecap: butt; stroke-dashoffset: 0; stroke-linejoin: miter; stroke-miterlimit: 10; is-custom-font: none; font-file-url: none; fill: none; fill-rule: nonzero; opacity: 0.5; visibility: hidden;" x="-1" y="-24" rx="0" ry="0" width="2" height="48"/>
</g>
		<g transform="matrix(1 0 0 1 -3 0)">
<rect style="stroke: none; stroke-width: 0.25; stroke-dasharray: none; stroke-linecap: butt; stroke-dashoffset: 0; stroke-linejoin: miter; stroke-miterlimit: 10; is-custom-font: none; font-file-url: none; fill: none; fill-rule: nonzero; opacity: 0.5; visibility: hidden;" x="-1" y="-24" rx="0" ry="0" width="2" height="48"/>
</g>
		<g transform="matrix(1 0 0 1 -1 0)">
<rect style="stroke: none; stroke-width: 0.25; stroke-dasharray: none; stroke-linecap: butt; stroke-dashoffset: 0; stroke-linejoin: miter; stroke-miterlimit: 10; is-custom-font: none; font-file-url: none; fill: none; fill-rule: nonzero; opacity: 0.5; visibility: hidden;" x="-1" y="-24" rx="0" ry="0" width="2" height="48"/>
</g>
		<g transform="matrix(1 0 0 1 1 0)">
<rect style="stroke: none; stroke-width: 0.25; stroke-dasharray: none; stroke-linecap: butt; stroke-dashoffset: 0; stroke-linejoin: miter; stroke-miterlimit: 10; is-custom-font: none; font-file-url: none; fill: none; fill-rule: nonzero; opacity: 0.5; visibility: hidden;" x="-1" y="-24" rx="0" ry="0" width="2" height="48"/>
</g>
		<g transform="matrix(1 0 0 1 3 0)">
<rect style="stroke: none; stroke-width: 0.25; stroke-dasharray: none; stroke-linecap: butt; stroke-dashoffset: 0; stroke-linejoin: miter; stroke-miterlimit: 10; is-custom-font: none; font-file-url: none; fill: none; fill-rule: nonzero; opacity: 0.5; visibility: hidden;" x="-1" y="-24" rx="0" ry="0" width="2" height="48"/>
</g>
		<g transform="matrix(1 0 0 1 5 0)">
<rect style="stroke: none; stroke-width: 0.25; stroke-dasharray: none; stroke-linecap: butt; stroke-dashoffset: 0; stroke-linejoin: miter; stroke-miterlimit: 10; is-custom-font: none; font-file-url: none; fill: none; fill-rule: nonzero; opacity: 0.5; visibility: hidden;" x="-1" y="-24" rx="0" ry="0" width="2" height="48"/>
</g>
		<g transform="matrix(1 0 0 1 7 0)">
<rect style="stroke: none; stroke-width: 0.25; stroke-dasharray: none; stroke-linecap: butt; stroke-dashoffset: 0; stroke-linejoin: miter; stroke-miterlimit: 10; is-custom-font: none; font-file-url: none; fill: none; fill-rule: nonzero; opacity: 0.5; visibility: hidden;" x="-1" y="-24" rx="0" ry="0" width="2" height="48"/>
</g>
		<g transform="matrix(1 0 0 1 9 0)">
<rect style="stroke: none; stroke-width: 0.25; stroke-dasharray: none; stroke-linecap: butt; stroke-dashoffset: 0; stroke-linejoin: miter; stroke-miterlimit: 10; is-custom-font: none; font-file-url: none; fill: none; fill-rule: nonzero; opacity: 0.5; visibility: hidden;" x="-1" y="-24" rx="0" ry="0" width="2" height="48"/>
</g>
		<g transform="matrix(1 0 0 1 11 0)">
<rect style="stroke: none; stroke-width: 0.25; stroke-dasharray: none; stroke-linecap: butt; stroke-dashoffset: 0; stroke-linejoin: miter; stroke-miterlimit: 10; is-custom-font: none; font-file-url: none; fill: none; fill-rule: nonzero; opacity: 0.5; visibility: hidden;" x="-1" y="-24" rx="0" ry="0" width="2" height="48"/>
</g>
		<g transform="matrix(1 0 0 1 13 0)">
<rect style="stroke: none; stroke-width: 0.25; stroke-dasharray: none; stroke-linecap: butt; stroke-dashoffset: 0; stroke-linejoin: miter; stroke-miterlimit: 10; is-custom-font: none; font-file-url: none; fill: none; fill-rule: nonzero; opacity: 0.5; visibility: hidden;" x="-1" y="-24" rx="0" ry="0" width="2" height="48"/>
</g>
		<g transform="matrix(1 0 0 1 15 0)">
<rect style="stroke: none; stroke-width: 0.25; stroke-dasharray: none; stroke-linecap: butt; stroke-dashoffset: 0; stroke-linejoin: miter; stroke-miterlimit: 10; is-custom-font: none; font-file-url: none; fill: none; fill-rule: nonzero; opacity: 0.5; visibility: hidden;" x="-1" y="-24" rx="0" ry="0" width="2" height="48"/>
</g>
		<g transform="matrix(1 0 0 1 17 0)">
<rect style="stroke: none; stroke-width: 0.25; stroke-dasharray: none; stroke-linecap: butt; stroke-dashoffset: 0; stroke-linejoin: miter; stroke-miterlimit: 10; is-custom-font: none; font-file-url: none; fill: none; fill-rule: nonzero; opacity: 0.5; visibility: hidden;" x="-1" y="-24" rx="0" ry="0" width="2" height="48"/>
</g>
		<g transform="matrix(1 0 0 1 19 0)">
<rect style="stroke: none; stroke-width: 0.25; stroke-dasharray: none; stroke-linecap: butt; stroke-dashoffset: 0; stroke-linejoin: miter; stroke-miterlimit: 10; is-custom-font: none; font-file-url: none; fill: none; fill-rule: nonzero; opacity: 0.5; visibility: hidden;" x="-1" y="-24" rx="0" ry="0" width="2" height="48"/>
</g>
		<g transform="matrix(1 0 0 1 21 0)">
<rect style="stroke: none; stroke-width: 0.25; stroke-dasharray: none; stroke-linecap: butt; stroke-dashoffset: 0; stroke-linejoin: miter; stroke-miterlimit: 10; is-custom-font: none; font-file-url: none; fill: none; fill-rule: nonzero; opacity: 0.5; visibility: hidden;" x="-1" y="-24" rx="0" ry="0" width="2" height="48"/>
</g>
		<g transform="matrix(1 0 0 1 23 0)">
<rect style="stroke: none; stroke-width: 0.25; stroke-dasharray: none; stroke-linecap: butt; stroke-dashoffset: 0; stroke-linejoin: miter; stroke-miterlimit: 10; is-custom-font: none; font-file-url: none; fill: none; fill-rule: nonzero; opacity: 0.5; visibility: hidden;" x="-1" y="-24" rx="0" ry="0" width="2" height="48"/>
</g>
		<g transform="matrix(1 0 0 1 0 23)">
<rect style="stroke: none; stroke-width: 0.25; stroke-dasharray: none; stroke-linecap: butt; stroke-dashoffset: 0; stroke-linejoin: miter; stroke-miterlimit: 10; is-custom-font: none; font-file-url: none; fill: none; fill-rule: nonzero; opacity: 0.5; visibility: hidden;" x="-24" y="-1" rx="0" ry="0" width="48" height="2"/>
</g>
		<g transform="matrix(1 0 0 1 0 21)">
<rect style="stroke: none; stroke-width: 0.25; stroke-dasharray: none; stroke-linecap: butt; stroke-dashoffset: 0; stroke-linejoin: miter; stroke-miterlimit: 10; is-custom-font: none; font-file-url: none; fill: none; fill-rule: nonzero; opacity: 0.5; visibility: hidden;" x="-24" y="-1" rx="0" ry="0" width="48" height="2"/>
</g>
		<g transform="matrix(1 0 0 1 0 19)">
<rect style="stroke: none; stroke-width: 0.25; stroke-dasharray: none; stroke-linecap: butt; stroke-dashoffset: 0; stroke-linejoin: miter; stroke-miterlimit: 10; is-custom-font: none; font-file-url: none; fill: none; fill-rule: nonzero; opacity: 0.5; visibility: hidden;" x="-24" y="-1" rx="0" ry="0" width="48" height="2"/>
</g>
		<g transform="matrix(1 0 0 1 0 17)">
<rect style="stroke: none; stroke-width: 0.25; stroke-dasharray: none; stroke-linecap: butt; stroke-dashoffset: 0; stroke-linejoin: miter; stroke-miterlimit: 10; is-custom-font: none; font-file-url: none; fill: none; fill-rule: nonzero; opacity: 0.5; visibility: hidden;" x="-24" y="-1" rx="0" ry="0" width="48" height="2"/>
</g>
		<g transform="matrix(1 0 0 1 0 15)">
<rect style="stroke: none; stroke-width: 0.25; stroke-dasharray: none; stroke-linecap: butt; stroke-dashoffset: 0; stroke-linejoin: miter; stroke-miterlimit: 10; is-custom-font: none; font-file-url: none; fill: none; fill-rule: nonzero; opacity: 0.5; visibility: hidden;" x="-24" y="-1" rx="0" ry="0" width="48" height="2"/>
</g>
		<g transform="matrix(1 0 0 1 0 13)">
<rect style="stroke: none; stroke-width: 0.25; stroke-dasharray: none; stroke-linecap: butt; stroke-dashoffset: 0; stroke-linejoin: miter; stroke-miterlimit: 10; is-custom-font: none; font-file-url: none; fill: none; fill-rule: nonzero; opacity: 0.5; visibility: hidden;" x="-24" y="-1" rx="0" ry="0" width="48" height="2"/>
</g>
		<g transform="matrix(1 0 0 1 0 11)">
<rect style="stroke: none; stroke-width: 0.25; stroke-dasharray: none; stroke-linecap: butt; stroke-dashoffset: 0; stroke-linejoin: miter; stroke-miterlimit: 10; is-custom-font: none; font-file-url: none; fill: none; fill-rule: nonzero; opacity: 0.5; visibility: hidden;" x="-24" y="-1" rx="0" ry="0" width="48" height="2"/>
</g>
		<g transform="matrix(1 0 0 1 0 9)">
<rect style="stroke: none; stroke-width: 0.25; stroke-dasharray: none; stroke-linecap: butt; stroke-dashoffset: 0; stroke-linejoin: miter; stroke-miterlimit: 10; is-custom-font: none; font-file-url: none; fill: none; fill-rule: nonzero; opacity: 0.5; visibility: hidden;" x="-24" y="-1" rx="0" ry="0" width="48" height="2"/>
</g>
		<g transform="matrix(1 0 0 1 0 7)">
<rect style="stroke: none; stroke-width: 0.25; stroke-dasharray: none; stroke-linecap: butt; stroke-dashoffset: 0; stroke-linejoin: miter; stroke-miterlimit: 10; is-custom-font: none; font-file-url: none; fill: none; fill-rule: nonzero; opacity: 0.5; visibility: hidden;" x="-24" y="-1" rx="0" ry="0" width="48" height="2"/>
</g>
		<g transform="matrix(1 0 0 1 0 5)">
<rect style="stroke: none; stroke-width: 0.25; stroke-dasharray: none; stroke-linecap: butt; stroke-dashoffset: 0; stroke-linejoin: miter; stroke-miterlimit: 10; is-custom-font: none; font-file-url: none; fill: none; fill-rule: nonzero; opacity: 0.5; visibility: hidden;" x="-24" y="-1" rx="0" ry="0" width="48" height="2"/>
</g>
		<g transform="matrix(1 0 0 1 0 3)">
<rect style="stroke: none; stroke-width: 0.25; stroke-dasharray: none; stroke-linecap: butt; stroke-dashoffset: 0; stroke-linejoin: miter; stroke-miterlimit: 10; is-custom-font: none; font-file-url: none; fill: none; fill-rule: nonzero; opacity: 0.5; visibility: hidden;" x="-24" y="-1" rx="0" ry="0" width="48" height="2"/>
</g>
		<g transform="matrix(1 0 0 1 0 1)">
<rect style="stroke: none; stroke-width: 0.25; stroke-dasharray: none; stroke-linecap: butt; stroke-dashoffset: 0; stroke-linejoin: miter; stroke-miterlimit: 10; is-custom-font: none; font-file-url: none; fill: none; fill-rule: nonzero; opacity: 0.5; visibility: hidden;" x="-24" y="-1" rx="0" ry="0" width="48" height="2"/>
</g>
		<g transform="matrix(1 0 0 1 0 -1)">
<rect style="stroke: none; stroke-width: 0.25; stroke-dasharray: none; stroke-linecap: butt; stroke-dashoffset: 0; stroke-linejoin: miter; stroke-miterlimit: 10; is-custom-font: none; font-file-url: none; fill: none; fill-rule: nonzero; opacity: 0.5; visibility: hidden;" x="-24" y="-1" rx="0" ry="0" width="48" height="2"/>
</g>
		<g transform="matrix(1 0 0 1 0 -3)">
<rect style="stroke: none; stroke-width: 0.25; stroke-dasharray: none; stroke-linecap: butt; stroke-dashoffset: 0; stroke-linejoin: miter; stroke-miterlimit: 10; is-custom-font: none; font-file-url: none; fill: none; fill-rule: nonzero; opacity: 0.5; visibility: hidden;" x="-24" y="-1" rx="0" ry="0" width="48" height="2"/>
</g>
		<g transform="matrix(1 0 0 1 0 -5)">
<rect style="stroke: none; stroke-width: 0.25; stroke-dasharray: none; stroke-linecap: butt; stroke-dashoffset: 0; stroke-linejoin: miter; stroke-miterlimit: 10; is-custom-font: none; font-file-url: none; fill: none; fill-rule: nonzero; opacity: 0.5; visibility: hidden;" x="-24" y="-1" rx="0" ry="0" width="48" height="2"/>
</g>
		<g transform="matrix(1 0 0 1 0 -7)">
<rect style="stroke: none; stroke-width: 0.25; stroke-dasharray: none; stroke-linecap: butt; stroke-dashoffset: 0; stroke-linejoin: miter; stroke-miterlimit: 10; is-custom-font: none; font-file-url: none; fill: none; fill-rule: nonzero; opacity: 0.5; visibility: hidden;" x="-24" y="-1" rx="0" ry="0" width="48" height="2"/>
</g>
		<g transform="matrix(1 0 0 1 0 -9)">
<rect style="stroke: none; stroke-width: 0.25; stroke-dasharray: none; stroke-linecap: butt; stroke-dashoffset: 0; stroke-linejoin: miter; stroke-miterlimit: 10; is-custom-font: none; font-file-url: none; fill: none; fill-rule: nonzero; opacity: 0.5; visibility: hidden;" x="-24" y="-1" rx="0" ry="0" width="48" height="2"/>
</g>
		<g transform="matrix(1 0 0 1 0 -11)">
<rect style="stroke: none; stroke-width: 0.25; stroke-dasharray: none; stroke-linecap: butt; stroke-dashoffset: 0; stroke-linejoin: miter; stroke-miterlimit: 10; is-custom-font: none; font-file-url: none; fill: none; fill-rule: nonzero; opacity: 0.5; visibility: hidden;" x="-24" y="-1" rx="0" ry="0" width="48" height="2"/>
</g>
		<g transform="matrix(1 0 0 1 0 -13)">
<rect style="stroke: none; stroke-width: 0.25; stroke-dasharray: none; stroke-linecap: butt; stroke-dashoffset: 0; stroke-linejoin: miter; stroke-miterlimit: 10; is-custom-font: none; font-file-url: none; fill: none; fill-rule: nonzero; opacity: 0.5; visibility: hidden;" x="-24" y="-1" rx="0" ry="0" width="48" height="2"/>
</g>
		<g transform="matrix(1 0 0 1 0 -15)">
<rect style="stroke: none; stroke-width: 0.25; stroke-dasharray: none; stroke-linecap: butt; stroke-dashoffset: 0; stroke-linejoin: miter; stroke-miterlimit: 10; is-custom-font: none; font-file-url: none; fill: none; fill-rule: nonzero; opacity: 0.5; visibility: hidden;" x="-24" y="-1" rx="0" ry="0" width="48" height="2"/>
</g>
		<g transform="matrix(1 0 0 1 0 -17)">
<rect style="stroke: none; stroke-width: 0.25; stroke-dasharray: none; stroke-linecap: butt; stroke-dashoffset: 0; stroke-linejoin: miter; stroke-miterlimit: 10; is-custom-font: none; font-file-url: none; fill: none; fill-rule: nonzero; opacity: 0.5; visibility: hidden;" x="-24" y="-1" rx="0" ry="0" width="48" height="2"/>
</g>
		<g transform="matrix(1 0 0 1 0 -19)">
<rect style="stroke: none; stroke-width: 0.25; stroke-dasharray: none; stroke-linecap: butt; stroke-dashoffset: 0; stroke-linejoin: miter; stroke-miterlimit: 10; is-custom-font: none; font-file-url: none; fill: none; fill-rule: nonzero; opacity: 0.5; visibility: hidden;" x="-24" y="-1" rx="0" ry="0" width="48" height="2"/>
</g>
		<g transform="matrix(1 0 0 1 0 -21)">
<rect style="stroke: none; stroke-width: 0.25; stroke-dasharray: none; stroke-linecap: butt; stroke-dashoffset: 0; stroke-linejoin: miter; stroke-miterlimit: 10; is-custom-font: none; font-file-url: none; fill: none; fill-rule: nonzero; opacity: 0.5; visibility: hidden;" x="-24" y="-1" rx="0" ry="0" width="48" height="2"/>
</g>
		<g transform="matrix(1 0 0 1 0 -23)">
<rect style="stroke: none; stroke-width: 0.25; stroke-dasharray: none; stroke-linecap: butt; stroke-dashoffset: 0; stroke-linejoin: miter; stroke-miterlimit: 10; is-custom-font: none; font-file-url: none; fill: none; fill-rule: nonzero; opacity: 0.5; visibility: hidden;" x="-24" y="-1" rx="0" ry="0" width="48" height="2"/>
</g>
		<g transform="matrix(1 0 0 1 0.0375 -7.181)">
<path style="stroke: none; stroke-width: 1; stroke-dasharray: none; stroke-linecap: butt; stroke-dashoffset: 0; stroke-linejoin: miter; stroke-miterlimit: 4; is-custom-font: none; font-file-url: none; fill: rgb(161,115,251); fill-rule: nonzero; opacity: 1;" transform=" translate(-26.0375, -18.819)" d="M 25.8 26.7 c -1.2 0.1 -2.3 -0.4 -3.5 -0.8 c -6.3 -2.1 -12.7 -4.2 -19 -6.3 c -0.4 -0.2 -0.7 -0.3 -1 -0.6 c -0.4 -0.3 -0.4 -0.7 0 -1 c 0.3 -0.2 0.7 -0.5 1.1 -0.6 c 6.8 -2 13.5 -4 20.3 -6.1 c 1.5 -0.5 3.1 -0.5 4.7 0 c 6.7 2 13.4 4 20.1 6 c 0.4 0.2 0.8 0.3 1.2 0.6 c 0.5 0.3 0.5 0.8 0 1.1 c -0.3 0.2 -0.6 0.4 -1 0.5 C 42 21.7 35.3 24 28.5 26.2 C 27.6 26.6 26.8 26.7 25.8 26.7 z" stroke-linecap="round"/>
</g>
		<g transform="matrix(1 0 0 1 -0.1 8.162)">
<path style="stroke: none; stroke-width: 1; stroke-dasharray: none; stroke-linecap: butt; stroke-dashoffset: 0; stroke-linejoin: miter; stroke-miterlimit: 4; is-custom-font: none; font-file-url: none; fill: rgb(161,115,251); fill-rule: nonzero; opacity: 1;" transform=" translate(-25.9, -34.162)" d="M 12.5 27 c -1 -0.2 -1.2 0.4 -1.2 0.9 c 0 2.6 0 5.1 0 7.6 c 0 0.9 0.3 1.4 0.9 2 c 0.2 0.2 0.5 0.4 0.7 0.6 c 1.6 1.1 3.5 1.8 5.4 2.3 c 3.8 1 7.6 1.2 11.5 0.7 c 2.5 -0.3 5 -1 7.3 -2 c 1 -0.5 2 -1 2.7 -1.8 c 0.5 -0.5 0.7 -1 0.6 -1.7 c 0.1 -2.4 0.1 -4.9 0.1 -7.4 c 0 -1.4 -1 -1.2 -1.4 -1.1 c -3.5 1.2 -7.2 2.3 -10.7 3.5 c -1.8 0.6 -3.5 0.6 -5.2 0 L 12.5 27 z" stroke-linecap="round"/>
</g>
		<g transform="matrix(1 0 0 1 20.6968 6.567)">
<path style="stroke: none; stroke-width: 1; stroke-dasharray: none; stroke-linecap: butt; stroke-dashoffset: 0; stroke-linejoin: miter; stroke-miterlimit: 4; is-custom-font: none; font-file-url: none; fill: rgb(161,115,251); fill-rule: nonzero; opacity: 1;" transform=" translate(-46.6968, -32.5669)" d="M 45.9 24.7 c -0.3 0.1 -0.4 0.2 -0.4 0.6 c 0 2.3 0 4.5 0 6.8 c 0 0.2 -0.1 0.5 -0.2 0.7 c -0.5 1.2 -1 2.4 -1.4 3.6 c -0.4 1.1 -0.2 2.3 0.6 3.1 c 0.2 0.3 0.6 0.6 0.9 0.8 c 0.3 0.3 0.8 0.4 1.2 0.5 c 0.7 0.1 1.3 -0.3 1.8 -0.7 c 0.2 -0.2 0.5 -0.4 0.7 -0.7 c 0.6 -0.8 0.7 -1.8 0.5 -2.7 c -0.3 -1.4 -0.9 -2.6 -1.5 -3.8 c -0.2 -0.2 -0.2 -0.6 -0.2 -0.8 c 0 -2.5 0 -4.9 0 -7.4 c 0 -0.5 -0.4 -0.4 -0.6 -0.3 L 45.9 24.7 z" stroke-linecap="round"/>
</g>
</g>
</g>
</svg>