<svg xmlns="http://www.w3.org/2000/svg" xmlns:xlink="http://www.w3.org/1999/xlink" version="1.1" width="1000" height="1000" viewBox="0 0 1000 1000" xml:space="preserve">
<desc>Created with Fabric.js 3.5.0</desc>
<defs>
</defs>
<rect x="0" y="0" width="100%" height="100%" fill="#ffffff"/>
<g transform="matrix(0.2857 0 0 0.2857 449.999 449.999)" id="195906">
<g style="" vector-effect="non-scaling-stroke">
		<g transform="matrix(5.8333 0 0 5.8333 0.004 -14.5544)" id="SVGRepo_tracerCarrier">
<path style="stroke: rgb(255,255,255); stroke-width: 1.5; stroke-dasharray: none; stroke-linecap: round; stroke-dashoffset: 0; stroke-linejoin: round; stroke-miterlimit: 4; is-custom-font: none; font-file-url: none; fill: none; fill-rule: nonzero; opacity: 0.4;" transform=" translate(-12.0007, -9.505)" d="M 12.1207 12.78 C 12.0507 12.77 11.9607 12.77 11.8807 12.78 C 10.1207 12.72 8.7207 11.28 8.7207 9.50998 C 8.7207 7.69998 10.1807 6.22998 12.0007 6.22998 C 13.8107 6.22998 15.2807 7.69998 15.2807 9.50998 C 15.2707 11.28 13.8807 12.72 12.1207 12.78 Z" stroke-linecap="round"/>
</g>
		<g transform="matrix(5.8333 0 0 5.8333 -0.0015 39.1859)" id="SVGRepo_tracerCarrier">
<path style="stroke: rgb(255,255,255); stroke-width: 1.5; stroke-dasharray: none; stroke-linecap: round; stroke-dashoffset: 0; stroke-linejoin: round; stroke-miterlimit: 4; is-custom-font: none; font-file-url: none; fill: none; fill-rule: nonzero; opacity: 0.34;" transform=" translate(-11.9998, -18.7176)" d="M 18.7398 19.3801 C 16.9598 21.0101 14.5998 22.0001 11.9998 22.0001 C 9.39977 22.0001 7.03977 21.0101 5.25977 19.3801 C 5.35977 18.4401 5.95977 17.5201 7.02977 16.8001 C 9.76977 14.9801 14.2498 14.9801 16.9698 16.8001 C 18.0398 17.5201 18.6398 18.4401 18.7398 19.3801 Z" stroke-linecap="round"/>
</g>
		<g transform="matrix(5.8333 0 0 5.8333 -0.0003 -0.0003)" id="SVGRepo_tracerCarrier">
<path style="stroke: rgb(255,255,255); stroke-width: 1.5; stroke-dasharray: none; stroke-linecap: round; stroke-dashoffset: 0; stroke-linejoin: round; stroke-miterlimit: 4; is-custom-font: none; font-file-url: none; fill: none; fill-rule: nonzero; opacity: 1;" transform=" translate(-12, -12)" d="M 12 22 C 17.5228 22 22 17.5228 22 12 C 22 6.47715 17.5228 2 12 2 C 6.47715 2 2 6.47715 2 12 C 2 17.5228 6.47715 22 12 22 Z" stroke-linecap="round"/>
</g>
		<g transform="matrix(5.8333 0 0 5.8333 0.0038 -14.5545)" id="SVGRepo_iconCarrier">
<path style="stroke: rgb(255,255,255); stroke-width: 0.0002; stroke-dasharray: none; stroke-linecap: round; stroke-dashoffset: 0; stroke-linejoin: round; stroke-miterlimit: 4; is-custom-font: none; font-file-url: none; fill: none; fill-rule: nonzero; opacity: 0.4;" transform=" translate(-12.0007, -9.505)" d="M 12.1207 12.78 C 12.0507 12.77 11.9607 12.77 11.8807 12.78 C 10.1207 12.72 8.7207 11.28 8.7207 9.50998 C 8.7207 7.69998 10.1807 6.22998 12.0007 6.22998 C 13.8107 6.22998 15.2807 7.69998 15.2807 9.50998 C 15.2707 11.28 13.8807 12.72 12.1207 12.78 Z" stroke-linecap="round"/>
</g>
		<g transform="matrix(5.8333 0 0 5.8333 -0.0016 39.1858)" id="SVGRepo_iconCarrier">
<path style="stroke: rgb(255,255,255); stroke-width: 0.0002; stroke-dasharray: none; stroke-linecap: round; stroke-dashoffset: 0; stroke-linejoin: round; stroke-miterlimit: 4; is-custom-font: none; font-file-url: none; fill: none; fill-rule: nonzero; opacity: 0.34;" transform=" translate(-11.9998, -18.7176)" d="M 18.7398 19.3801 C 16.9598 21.0101 14.5998 22.0001 11.9998 22.0001 C 9.39977 22.0001 7.03977 21.0101 5.25977 19.3801 C 5.35977 18.4401 5.95977 17.5201 7.02977 16.8001 C 9.76977 14.9801 14.2498 14.9801 16.9698 16.8001 C 18.0398 17.5201 18.6398 18.4401 18.7398 19.3801 Z" stroke-linecap="round"/>
</g>
		<g transform="matrix(5.8333 0 0 5.8333 -0.0004 -0.0004)" id="SVGRepo_iconCarrier">
<path style="stroke: rgb(255,255,255); stroke-width: 0.0002; stroke-dasharray: none; stroke-linecap: round; stroke-dashoffset: 0; stroke-linejoin: round; stroke-miterlimit: 4; is-custom-font: none; font-file-url: none; fill: none; fill-rule: nonzero; opacity: 1;" transform=" translate(-12, -12)" d="M 12 22 C 17.5228 22 22 17.5228 22 12 C 22 6.47715 17.5228 2 12 2 C 6.47715 2 2 6.47715 2 12 C 2 17.5228 6.47715 22 12 22 Z" stroke-linecap="round"/>
</g>
</g>
</g>
<g transform="matrix(0.05 0 0 0.05 120 120)" id="685490">
<g style="" vector-effect="non-scaling-stroke">
		<g transform="matrix(1.5625 0 0 1.5625 120.8797 52.7469)" id="SVGRepo_iconCarrier">
<path style="stroke: none; stroke-width: 1; stroke-dasharray: none; stroke-linecap: butt; stroke-dashoffset: 0; stroke-linejoin: miter; stroke-miterlimit: 4; is-custom-font: none; font-file-url: none; fill: rgb(161,115,251); fill-rule: nonzero; opacity: 1;" transform=" translate(-333.363, -289.758)" d="M 222.242 67.516 V 512 c 122.74 0 222.242 -99.501 222.242 -222.242 S 344.982 67.516 222.242 67.516 z" stroke-linecap="round"/>
</g>
		<g transform="matrix(1.5625 0 0 1.5625 -79.1211 52.7469)" id="SVGRepo_iconCarrier">
<path style="stroke: none; stroke-width: 1; stroke-dasharray: none; stroke-linecap: butt; stroke-dashoffset: 0; stroke-linejoin: miter; stroke-miterlimit: 4; is-custom-font: none; font-file-url: none; fill: rgb(161,115,251); fill-rule: nonzero; opacity: 1;" transform=" translate(-205.3625, -289.758)" d="M 410.725 289.758 c 0 -122.74 -84.387 -222.242 -188.484 -222.242 C 99.501 67.516 0 167.018 0 289.758 S 99.501 512 222.242 512 C 326.339 512 410.725 412.499 410.725 289.758 z" stroke-linecap="round"/>
</g>
		<g transform="matrix(1.5625 0 0 1.5625 -52.7468 52.7469)" id="SVGRepo_iconCarrier">
<circle style="stroke: none; stroke-width: 1; stroke-dasharray: none; stroke-linecap: butt; stroke-dashoffset: 0; stroke-linejoin: miter; stroke-miterlimit: 4; is-custom-font: none; font-file-url: none; fill: rgb(255,255,255); fill-rule: nonzero; opacity: 1;" cx="0" cy="0" r="163.165"/>
</g>
		<g transform="matrix(1.5625 0 0 1.5625 -52.7469 52.7468)" id="SVGRepo_iconCarrier">
<circle style="stroke: none; stroke-width: 1; stroke-dasharray: none; stroke-linecap: butt; stroke-dashoffset: 0; stroke-linejoin: miter; stroke-miterlimit: 4; is-custom-font: none; font-file-url: none; fill: rgb(161,115,251); fill-rule: nonzero; opacity: 1;" cx="0" cy="0" r="104.088"/>
</g>
		<g transform="matrix(1.5625 0 0 1.5625 -52.7469 52.7468)" id="SVGRepo_iconCarrier">
<circle style="stroke: none; stroke-width: 1; stroke-dasharray: none; stroke-linecap: butt; stroke-dashoffset: 0; stroke-linejoin: miter; stroke-miterlimit: 4; is-custom-font: none; font-file-url: none; fill: rgb(161,115,251); fill-rule: nonzero; opacity: 1;" cx="0" cy="0" r="45.011"/>
</g>
		<g transform="matrix(1.5625 0 0 1.5625 336.8605 -320.346)" id="SVGRepo_iconCarrier">
<path style="stroke: none; stroke-width: 1; stroke-dasharray: none; stroke-linecap: butt; stroke-dashoffset: 0; stroke-linejoin: miter; stroke-miterlimit: 4; is-custom-font: none; font-file-url: none; fill: rgb(161,115,251); fill-rule: nonzero; opacity: 1;" transform=" translate(-471.5907, -50.9785)" d="M 498.816 13.184 l -67.634 35.805 l 55.698 39.784 l 11.936 -11.936 C 516.394 59.261 516.394 30.76 498.816 13.184 z" stroke-linecap="round"/>
</g>
		<g transform="matrix(1.5625 0 0 1.5625 320.3468 -349.2943)" id="SVGRepo_iconCarrier">
<path style="stroke: none; stroke-width: 1; stroke-dasharray: none; stroke-linecap: butt; stroke-dashoffset: 0; stroke-linejoin: miter; stroke-miterlimit: 4; is-custom-font: none; font-file-url: none; fill: rgb(161,115,251); fill-rule: nonzero; opacity: 1;" transform=" translate(-461.022, -32.4517)" d="M 435.162 13.184 l -11.935 11.935 l 23.87 39.784 l 51.72 -51.72 C 481.238 -4.394 452.74 -4.394 435.162 13.184 z" stroke-linecap="round"/>
</g>
		<g transform="matrix(1.5625 0 0 1.5625 169.1859 -142.814)" id="SVGRepo_iconCarrier">
<polygon style="stroke: none; stroke-width: 1; stroke-dasharray: none; stroke-linecap: butt; stroke-dashoffset: 0; stroke-linejoin: miter; stroke-miterlimit: 4; is-custom-font: none; font-file-url: none; fill: rgb(254,220,61); fill-rule: nonzero; opacity: 1;" points="-98.731,81.853 -52.92,99.696 98.731,-51.955 66.904,-99.696 "/>
</g>
		<g transform="matrix(1.5625 0 0 1.5625 136.5976 -169.186)" id="SVGRepo_iconCarrier">
<polygon style="stroke: none; stroke-width: 1; stroke-dasharray: none; stroke-linecap: butt; stroke-dashoffset: 0; stroke-linejoin: miter; stroke-miterlimit: 4; is-custom-font: none; font-file-url: none; fill: rgb(255,231,119); fill-rule: nonzero; opacity: 1;" points="55.9335,-98.731 -95.7175,52.92 -77.8745,98.731 95.7175,-74.861 "/>
</g>
		<g transform="matrix(1.5625 0 0 1.5625 317.2383 -267.5078)" id="SVGRepo_iconCarrier">
<polygon style="stroke: none; stroke-width: 1; stroke-dasharray: none; stroke-linecap: butt; stroke-dashoffset: 0; stroke-linejoin: miter; stroke-miterlimit: 4; is-custom-font: none; font-file-url: none; fill: rgb(185,185,185); fill-rule: nonzero; opacity: 1;" points="-3.9785,-27.849 -23.8705,-23.871 -27.8495,-3.978 3.9775,27.849 27.8495,3.979 "/>
</g>
		<g transform="matrix(-1.1049 1.1049 -1.1049 -1.1049 267.4993 -317.2265)" id="SVGRepo_iconCarrier">
<rect style="stroke: none; stroke-width: 1; stroke-dasharray: none; stroke-linecap: butt; stroke-dashoffset: 0; stroke-linejoin: miter; stroke-miterlimit: 4; is-custom-font: none; font-file-url: none; fill: rgb(220,220,220); fill-rule: nonzero; opacity: 1;" x="-16.879" y="-22.5055" rx="0" ry="0" width="33.758" height="45.011"/>
</g>
		<g transform="matrix(1.5625 0 0 1.5625 26.2008 -1.6805)" id="SVGRepo_iconCarrier">
<polygon style="stroke: none; stroke-width: 1; stroke-dasharray: none; stroke-linecap: butt; stroke-dashoffset: 0; stroke-linejoin: miter; stroke-miterlimit: 4; is-custom-font: none; font-file-url: none; fill: rgb(255,193,166); fill-rule: nonzero; opacity: 1;" points="6.7635,-22.4565 -38.5905,6.9845 -7.2055,22.4565 38.5905,9.3725 "/>
</g>
		<g transform="matrix(1.5625 0 0 1.5625 1.6812 -32.4164)" id="SVGRepo_iconCarrier">
<polygon style="stroke: none; stroke-width: 1; stroke-dasharray: none; stroke-linecap: butt; stroke-dashoffset: 0; stroke-linejoin: miter; stroke-miterlimit: 4; is-custom-font: none; font-file-url: none; fill: rgb(255,219,204); fill-rule: nonzero; opacity: 1;" points="-9.371,-34.6125 -22.456,11.1835 -14.942,34.6125 22.456,-2.7855 "/>
</g>
		<g transform="matrix(1.5625 0 0 1.5625 -18.9023 30.9899)" id="SVGRepo_iconCarrier">
<polygon style="stroke: none; stroke-width: 1; stroke-dasharray: none; stroke-linecap: butt; stroke-dashoffset: 0; stroke-linejoin: miter; stroke-miterlimit: 4; is-custom-font: none; font-file-url: none; fill: rgb(39,39,39); fill-rule: nonzero; opacity: 1;" points="6.1885,-13.9245 -8.1385,-12.3285 -21.6605,13.9245 21.6605,1.5475 "/>
</g>
		<g transform="matrix(1.5625 0 0 1.5625 -30.9898 18.9024)" id="SVGRepo_iconCarrier">
<polygon style="stroke: none; stroke-width: 1; stroke-dasharray: none; stroke-linecap: butt; stroke-dashoffset: 0; stroke-linejoin: miter; stroke-miterlimit: 4; is-custom-font: none; font-file-url: none; fill: rgb(77,77,77); fill-rule: nonzero; opacity: 1;" points="-1.5465,-21.6605 -13.9245,21.6605 13.9245,-6.1885 "/>
</g>
</g>
</g>
</svg>