<svg xmlns="http://www.w3.org/2000/svg" xmlns:xlink="http://www.w3.org/1999/xlink" version="1.1" width="1000" height="1000" viewBox="0 0 1000 1000" xml:space="preserve">
<desc>Created with Fabric.js 3.5.0</desc>
<defs>
</defs>
<rect x="0" y="0" width="100%" height="100%" fill="#ffffff"/>
<g transform="matrix(38.0952 0 0 38.0952 499.9996 499.9996)" id="291351">
<path style="stroke: none; stroke-width: 1; stroke-dasharray: none; stroke-linecap: butt; stroke-dashoffset: 0; stroke-linejoin: miter; stroke-miterlimit: 4; is-custom-font: none; font-file-url: none; fill: rgb(161,115,251); fill-rule: evenodd; opacity: 1;" vector-effect="non-scaling-stroke" transform=" translate(-373.5005, -570)" d="M 379.79996 578 L 376.649968 578 L 376.649968 574 L 370.349983 574 L 370.349983 578 L 367.19999 578 L 367.19999 568.813 L 373.489475 562.823 L 379.79996 568.832 L 379.79996 578 Z M 381.899955 568.004 L 381.899955 568 L 381.899955 568 L 373.502075 560 L 363 569.992 L 364.481546 571.406 L 365.099995 570.813 L 365.099995 580 L 372.449978 580 L 372.449978 576 L 374.549973 576 L 374.549973 580 L 381.899955 580 L 381.899955 579.997 L 381.899955 570.832 L 382.514204 571.416 L 384.001 570.002 L 381.899955 568.004 Z" stroke-linecap="round"/>
</g>
</svg>