<svg xmlns="http://www.w3.org/2000/svg" xmlns:xlink="http://www.w3.org/1999/xlink" version="1.1" width="1000" height="1000" viewBox="0 0 1000 1000" xml:space="preserve">
<desc>Created with Fabric.js 3.5.0</desc>
<defs>
</defs>
<rect x="0" y="0" width="100%" height="100%" fill="#ffffff"/>
<g transform="matrix(2.9167 0 0 2.9167 133.2115 135.0004)" id="948921">
<path style="stroke: none; stroke-width: 1; stroke-dasharray: none; stroke-linecap: butt; stroke-dashoffset: 0; stroke-linejoin: miter; stroke-miterlimit: 4; is-custom-font: none; font-file-url: none; fill: rgb(161,115,251); fill-rule: nonzero; opacity: 1;" vector-effect="non-scaling-stroke" transform=" translate(-12, -12)" d="M 12 24 C 5.4 24 0 18.6 0 12 S 5.4 0 12 0 s 12 5.4 12 12 S 18.6 24 12 24 z M 9.5 17 c 0.6 3.1 1.7 5 2.5 5 s 1.9 -1.9 2.5 -5 H 9.5 z M 16.6 17 c -0.3 1.7 -0.8 3.3 -1.4 4.5 c 2.3 -0.8 4.3 -2.4 5.5 -4.5 H 16.6 z M 3.3 17 c 1.2 2.1 3.2 3.7 5.5 4.5 c -0.6 -1.2 -1.1 -2.8 -1.4 -4.5 H 3.3 z M 16.9 15 h 4.7 c 0.2 -0.9 0.4 -2 0.4 -3 s -0.2 -2.1 -0.5 -3 h -4.7 c 0.2 1 0.2 2 0.2 3 S 17 14 16.9 15 z M 9.2 15 h 5.7 c 0.1 -0.9 0.2 -1.9 0.2 -3 S 15 9.9 14.9 9 H 9.2 C 9.1 9.9 9 10.9 9 12 C 9 13.1 9.1 14.1 9.2 15 z M 2.5 15 h 4.7 c -0.1 -1 -0.1 -2 -0.1 -3 s 0 -2 0.1 -3 H 2.5 C 2.2 9.9 2 11 2 12 S 2.2 14.1 2.5 15 z M 16.6 7 h 4.1 c -1.2 -2.1 -3.2 -3.7 -5.5 -4.5 C 15.8 3.7 16.3 5.3 16.6 7 z M 9.5 7 h 5.1 c -0.6 -3.1 -1.7 -5 -2.5 -5 C 11.3 2 10.1 3.9 9.5 7 z M 3.3 7 h 4.1 c 0.3 -1.7 0.8 -3.3 1.4 -4.5 C 6.5 3.3 4.6 4.9 3.3 7 z" stroke-linecap="round"/>
</g>
</svg>