<svg xmlns="http://www.w3.org/2000/svg" xmlns:xlink="http://www.w3.org/1999/xlink" version="1.1" width="1000" height="1000" viewBox="0 0 1000 1000" xml:space="preserve">
<desc>Created with Fabric.js 3.5.0</desc>
<defs>
</defs>
<rect x="0" y="0" width="100%" height="100%" fill="#ffffff"/>
<g transform="matrix(0.2475 0 0 0.2475 156.4655 267.8787)" id="372863">
<g style="" vector-effect="non-scaling-stroke">
		<g transform="matrix(1 0 0 1 136.3046 -88.685)">
<path style="stroke: none; stroke-width: 1; stroke-dasharray: none; stroke-linecap: butt; stroke-dashoffset: 0; stroke-linejoin: miter; stroke-miterlimit: 4; is-custom-font: none; font-file-url: none; fill: rgb(242,242,242); fill-rule: nonzero; opacity: 1;" transform=" translate(-736.3046, -361.315)" d="M 1039.79947 146.935 h -607 a 8.72734 8.72734 0 0 0 -8.71972 8.72 v 219.41 h 146.8999 a 15.01828 15.01828 0 0 1 15 15 v 185.63 h 453.81982 a 8.71245 8.71245 0 0 0 6.63037 -3.06 a 2.0439 2.0439 0 0 0 0.18994 -0.24 a 8.16642 8.16642 0 0 0 1.25 -2.11005 a 8.507 8.507 0 0 0 0.65967 -3.31 V 155.655 A 8.72954 8.72954 0 0 0 1039.79947 146.935 Z" stroke-linecap="round"/>
</g>
		<g transform="matrix(1 0 0 1 136.2987 -266.8674)">
<rect style="stroke: none; stroke-width: 1; stroke-dasharray: none; stroke-linecap: butt; stroke-dashoffset: 0; stroke-linejoin: miter; stroke-miterlimit: 4; is-custom-font: none; font-file-url: none; fill: rgb(204,204,204); fill-rule: nonzero; opacity: 1;" x="-310.9784" y="-1.2464" rx="0" ry="0" width="621.9568" height="2.4928"/>
</g>
		<g transform="matrix(1 0 0 1 -153.4909 -284.367)">
<circle style="stroke: none; stroke-width: 1; stroke-dasharray: none; stroke-linecap: butt; stroke-dashoffset: 0; stroke-linejoin: miter; stroke-miterlimit: 4; is-custom-font: none; font-file-url: none; fill: rgb(204,204,204); fill-rule: nonzero; opacity: 1;" cx="0" cy="0" r="7.47844"/>
</g>
		<g transform="matrix(1 0 0 1 -131.9904 -284.367)">
<circle style="stroke: none; stroke-width: 1; stroke-dasharray: none; stroke-linecap: butt; stroke-dashoffset: 0; stroke-linejoin: miter; stroke-miterlimit: 4; is-custom-font: none; font-file-url: none; fill: rgb(204,204,204); fill-rule: nonzero; opacity: 1;" cx="0" cy="0" r="7.47844"/>
</g>
		<g transform="matrix(1 0 0 1 -110.4898 -284.367)">
<circle style="stroke: none; stroke-width: 1; stroke-dasharray: none; stroke-linecap: butt; stroke-dashoffset: 0; stroke-linejoin: miter; stroke-miterlimit: 4; is-custom-font: none; font-file-url: none; fill: rgb(204,204,204); fill-rule: nonzero; opacity: 1;" cx="0" cy="0" r="7.47844"/>
</g>
		<g transform="matrix(1 0 0 1 136.2995 -200.685)">
<path style="stroke: none; stroke-width: 1; stroke-dasharray: none; stroke-linecap: butt; stroke-dashoffset: 0; stroke-linejoin: miter; stroke-miterlimit: 4; is-custom-font: none; font-file-url: none; fill: rgb(204,204,204); fill-rule: nonzero; opacity: 1;" transform=" translate(-736.2995, -249.315)" d="M 892.29947 236.315 h -312 a 13 13 0 0 0 0 26 h 312 a 13 13 0 0 0 0 -26 Z m 0 24 h -312 a 11 11 0 0 1 0 -22 h 312 a 11 11 0 0 1 0 22 Z" stroke-linecap="round"/>
</g>
		<g transform="matrix(1 0 0 1 231.7697 -97.115)">
<path style="stroke: none; stroke-width: 1; stroke-dasharray: none; stroke-linecap: butt; stroke-dashoffset: 0; stroke-linejoin: miter; stroke-miterlimit: 4; is-custom-font: none; font-file-url: none; fill: rgb(255,255,255); fill-rule: nonzero; opacity: 1;" transform=" translate(-831.7697, -352.885)" d="M 987.76969 339.885 h -312 a 13 13 0 0 0 0 26 h 312 a 13 13 0 0 0 0 -26 Z" stroke-linecap="round"/>
</g>
		<g transform="matrix(1 0 0 1 231.7697 -49.115)">
<path style="stroke: none; stroke-width: 1; stroke-dasharray: none; stroke-linecap: butt; stroke-dashoffset: 0; stroke-linejoin: miter; stroke-miterlimit: 4; is-custom-font: none; font-file-url: none; fill: rgb(255,255,255); fill-rule: nonzero; opacity: 1;" transform=" translate(-831.7697, -400.885)" d="M 987.76969 387.885 h -312 a 13 13 0 0 0 0 26 h 312 a 13 13 0 0 0 0 -26 Z" stroke-linecap="round"/>
</g>
		<g transform="matrix(1 0 0 1 231.7697 -1.115)">
<path style="stroke: none; stroke-width: 1; stroke-dasharray: none; stroke-linecap: butt; stroke-dashoffset: 0; stroke-linejoin: miter; stroke-miterlimit: 4; is-custom-font: none; font-file-url: none; fill: rgb(255,255,255); fill-rule: nonzero; opacity: 1;" transform=" translate(-831.7697, -448.885)" d="M 987.76969 435.885 h -312 a 13 13 0 0 0 0 26 h 312 a 13 13 0 0 0 0 -26 Z" stroke-linecap="round"/>
</g>
		<g transform="matrix(1 0 0 1 -45.6605 -49.115)">
<path style="stroke: none; stroke-width: 1; stroke-dasharray: none; stroke-linecap: butt; stroke-dashoffset: 0; stroke-linejoin: miter; stroke-miterlimit: 4; is-custom-font: none; font-file-url: none; fill: rgb(204,204,204); fill-rule: nonzero; opacity: 1;" transform=" translate(-554.3395, -400.885)" d="M 625.34976 318.385 h -142.02 a 11.50392 11.50392 0 0 0 -11.49024 11.49 v 45.19 h 2 v -45.19 a 9.50457 9.50457 0 0 1 9.49024 -9.49 h 142.02 a 9.49788 9.49788 0 0 1 9.48975 9.49 v 142.02 a 9.49788 9.49788 0 0 1 -9.48975 9.49 H 585.97965 v 2 h 39.37011 a 11.49727 11.49727 0 0 0 11.48975 -11.49 V 329.875 A 11.49723 11.49723 0 0 0 625.34976 318.385 Z" stroke-linecap="round"/>
</g>
		<g transform="matrix(1 0 0 1 -336.342 -25.5523)">
<path style="stroke: none; stroke-width: 1; stroke-dasharray: none; stroke-linecap: butt; stroke-dashoffset: 0; stroke-linejoin: miter; stroke-miterlimit: 4; is-custom-font: none; font-file-url: none; fill: rgb(255,184,184); fill-rule: nonzero; opacity: 1;" transform=" translate(-263.658, -424.4477)" d="M 257.0941 464.50258 c -0.50236 0.02033 -21.91024 -1.464 -22.45679 -1.48242 l 1.9231 -19.19727 l 12.19336 -0.36718 l 23.3 -43.15528 c -3.23157 -6.162 0.745 -14.33826 7.60026 -15.59852 c 13.81387 -3.13979 18.55923 18.59332 4.70321 21.48524 l -19.27222 52.7334 A 8.54966 8.54966 0 0 1 257.0941 464.50258 Z" stroke-linecap="round"/>
</g>
		<g transform="matrix(1 0 0 1 -382.6737 5.5129)">
<path style="stroke: none; stroke-width: 1; stroke-dasharray: none; stroke-linecap: butt; stroke-dashoffset: 0; stroke-linejoin: miter; stroke-miterlimit: 4; is-custom-font: none; font-file-url: none; fill: rgb(161,124,241); fill-rule: nonzero; opacity: 1;" transform=" translate(-217.3263, -455.5129)" d="M 200.65489 474.39028 c -20.3716 0.05 -22.15993 -30.73767 -1.74315 -32.90723 c 53.9884 -3.26208 47.15636 -16.82179 51.25631 23.17516 a 4.5045 4.5045 0 0 1 -3.9946 4.95375 l -43.75025 4.68359 A 16.63489 16.63489 0 0 1 200.65489 474.39028 Z" stroke-linecap="round"/>
</g>
		<g transform="matrix(1 0 0 1 -415.7756 -51.3991)">
<path style="stroke: none; stroke-width: 1; stroke-dasharray: none; stroke-linecap: butt; stroke-dashoffset: 0; stroke-linejoin: miter; stroke-miterlimit: 4; is-custom-font: none; font-file-url: none; fill: rgb(255,184,184); fill-rule: nonzero; opacity: 1;" transform=" translate(-184.2244, -398.6009)" d="M 196.00552 377.0499 c 28.06453 15.96985 5.02494 58.10625 -23.56276 43.10183 C 144.37912 404.18242 167.41871 362.046 196.00552 377.0499 Z" stroke-linecap="round"/>
</g>
		<g transform="matrix(1 0 0 1 -369.4354 266.1135)">
<polygon style="stroke: none; stroke-width: 1; stroke-dasharray: none; stroke-linecap: butt; stroke-dashoffset: 0; stroke-linejoin: miter; stroke-miterlimit: 4; is-custom-font: none; font-file-url: none; fill: rgb(255,184,184); fill-rule: nonzero; opacity: 1;" points="-9.045,23.6445 3.214,23.6435 9.047,-23.6445 -9.047,-23.6435 -9.045,23.6445 "/>
</g>
		<g transform="matrix(1 0 0 1 -361.8423 293.5821)">
<path style="stroke: none; stroke-width: 1; stroke-dasharray: none; stroke-linecap: butt; stroke-dashoffset: 0; stroke-linejoin: miter; stroke-miterlimit: 4; is-custom-font: none; font-file-url: none; fill: rgb(47,46,65); fill-rule: nonzero; opacity: 1;" transform=" translate(-238.1577, -743.5822)" d="M 218.89263 751.14218 l 38.53073 -0.00176 c -0.14718 -19.88089 -25.9182 -14.15221 -38.53141 -14.88512 Z" stroke-linecap="round"/>
</g>
		<g transform="matrix(1 0 0 1 -422.4354 266.1135)">
<polygon style="stroke: none; stroke-width: 1; stroke-dasharray: none; stroke-linecap: butt; stroke-dashoffset: 0; stroke-linejoin: miter; stroke-miterlimit: 4; is-custom-font: none; font-file-url: none; fill: rgb(255,184,184); fill-rule: nonzero; opacity: 1;" points="-9.045,23.6445 3.214,23.6435 9.047,-23.6445 -9.047,-23.6435 -9.045,23.6445 "/>
</g>
		<g transform="matrix(1 0 0 1 -414.8423 293.5821)">
<path style="stroke: none; stroke-width: 1; stroke-dasharray: none; stroke-linecap: butt; stroke-dashoffset: 0; stroke-linejoin: miter; stroke-miterlimit: 4; is-custom-font: none; font-file-url: none; fill: rgb(47,46,65); fill-rule: nonzero; opacity: 1;" transform=" translate(-185.1577, -743.5822)" d="M 165.89263 751.14218 l 38.53073 -0.00176 c -0.14718 -19.88089 -25.9182 -14.15221 -38.53141 -14.88512 Z" stroke-linecap="round"/>
</g>
		<g transform="matrix(1 0 0 1 -397.009 187.2864)">
<path style="stroke: none; stroke-width: 1; stroke-dasharray: none; stroke-linecap: butt; stroke-dashoffset: 0; stroke-linejoin: miter; stroke-miterlimit: 4; is-custom-font: none; font-file-url: none; fill: rgb(47,46,65); fill-rule: nonzero; opacity: 1;" transform=" translate(-202.9909, -637.2864)" d="M 182.4525 723.24282 c -2.963 -0.81313 -19.06382 1.646 -20.964 -1.582 c -6.636 -66.51114 -5.16091 -131.60265 9.56972 -167.37011 l 50.6482 -3.10059 c 11.32584 20.6755 37.36026 157.87463 21.6559 166.21643 l -20.19448 0.7201 a 5.01824 5.01824 0 0 1 -5.0393 -3.82618 l -16.89478 -96.11718 c -4.20722 -5.881 -12.4773 101.22422 -13.843 100.82371 A 4.97808 4.97808 0 0 1 182.4525 723.24282 Z" stroke-linecap="round"/>
</g>
		<g transform="matrix(1 0 0 1 -410.1402 47.2074)">
<path style="stroke: none; stroke-width: 1; stroke-dasharray: none; stroke-linecap: butt; stroke-dashoffset: 0; stroke-linejoin: miter; stroke-miterlimit: 4; is-custom-font: none; font-file-url: none; fill: rgb(161,124,241); fill-rule: nonzero; opacity: 1;" transform=" translate(-189.8598, -497.2074)" d="M 169.44957 562.69789 c -25.57159 -26.75341 -9.26039 -98.47865 -10.08593 -96.95311 c 0.07006 -1.757 5.862 -28.816 20.84448 -33.25691 c 11.8867 -3.92293 25.04321 7.81175 26.66606 19.68051 l 17.80635 105.15331 a 3.69838 3.69838 0 0 1 -1.01367 3.18 C 224.54239 563.22778 170.70142 562.15165 169.44957 562.69789 Z" stroke-linecap="round"/>
</g>
		<g transform="matrix(1 0 0 1 -417.793 -55.7328)">
<path style="stroke: none; stroke-width: 1; stroke-dasharray: none; stroke-linecap: butt; stroke-dashoffset: 0; stroke-linejoin: miter; stroke-miterlimit: 4; is-custom-font: none; font-file-url: none; fill: rgb(47,46,65); fill-rule: nonzero; opacity: 1;" transform=" translate(-182.2071, -394.2673)" d="M 177.74856 395.86826 c 2.24569 -1.41969 3.35253 -3.8545 4.65967 -6.07256 c 6.88544 -3.92419 14.80077 5.56884 22.08344 2.026 c 20.59268 -19.76915 -0.57431 -25.60141 -19.54049 -26.64389 c -4.48038 -0.55218 -8.29173 1.03713 -11.6791 3.66209 c -37.88569 -2.89341 -19.71625 47.48278 4.19421 54.13638 c 4.22161 1.84908 7.38845 -1.8935 3.66551 -5.29548 C 175.98091 412.28066 169.60018 401.41075 177.74856 395.86826 Z" stroke-linecap="round"/>
</g>
		<g transform="matrix(1 0 0 1 -166.0204 113.065)">
<path style="stroke: none; stroke-width: 1; stroke-dasharray: none; stroke-linecap: butt; stroke-dashoffset: 0; stroke-linejoin: miter; stroke-miterlimit: 4; is-custom-font: none; font-file-url: none; fill: rgb(63,61,86); fill-rule: nonzero; opacity: 1;" transform=" translate(-433.9796, -563.065)" d="M 570.97965 373.065 h -274 a 17.02411 17.02411 0 0 0 -17 17 v 346 a 17.0241 17.0241 0 0 0 17 17 h 274 a 17.02411 17.02411 0 0 0 17 -17 v -346 A 17.02412 17.02412 0 0 0 570.97965 373.065 Z m 15 363 a 15.01828 15.01828 0 0 1 -15 15 h -274 a 15.01828 15.01828 0 0 1 -15 -15 v -346 a 15.01828 15.01828 0 0 1 15 -15 h 274 a 15.01828 15.01828 0 0 1 15 15 Z" stroke-linecap="round"/>
</g>
		<g transform="matrix(1 0 0 1 -350.3145 52.5158)">
<path style="stroke: none; stroke-width: 1; stroke-dasharray: none; stroke-linecap: butt; stroke-dashoffset: 0; stroke-linejoin: miter; stroke-miterlimit: 4; is-custom-font: none; font-file-url: none; fill: rgb(255,184,184); fill-rule: nonzero; opacity: 1;" transform=" translate(-249.6855, -502.5158)" d="M 219.77721 518.66274 c -9.0306 1.02306 -12.99534 -19.99215 -16.448 -25.34668 l 17.98486 -6.9834 l 5.85205 10.70312 l 49.02808 1.21875 a 10.67752 10.67752 0 0 1 0.95239 -1.12011 h 0 c 9.72314 -10.18066 25.55743 5.07331 15.87108 15.2321 a 11.03583 11.03583 0 0 1 -16.49657 -0.47722 C 275.31032 511.97567 220.96126 518.69451 219.77721 518.66274 Z" stroke-linecap="round"/>
</g>
		<g transform="matrix(1 0 0 1 -396.5393 26.4979)">
<path style="stroke: none; stroke-width: 1; stroke-dasharray: none; stroke-linecap: butt; stroke-dashoffset: 0; stroke-linejoin: miter; stroke-miterlimit: 4; is-custom-font: none; font-file-url: none; fill: rgb(161,124,241); fill-rule: nonzero; opacity: 1;" transform=" translate(-203.4608, -476.4979)" d="M 206.45836 508.63149 c -3.0069 2.89718 -26.09073 -37.77326 -27.77718 -38.92289 c -11.66432 -18.12981 15.79569 -36.02983 27.661 -17.99809 l 23.99705 36.879 a 4.50461 4.50461 0 0 1 -1.31738 6.22558 C 227.92818 495.32714 207.23017 509.73279 206.45836 508.63149 Z" stroke-linecap="round"/>
</g>
		<g transform="matrix(1 0 0 1 -166.0203 149.565)">
<path style="stroke: none; stroke-width: 1; stroke-dasharray: none; stroke-linecap: butt; stroke-dashoffset: 0; stroke-linejoin: miter; stroke-miterlimit: 4; is-custom-font: none; font-file-url: none; fill: rgb(204,204,204); fill-rule: nonzero; opacity: 1;" transform=" translate(-433.9796, -599.565)" d="M 516.98006 612.565 h -166 c -16.957 -0.08167 -17.0275 -25.9115 0.00084 -26 l 165.99916 0 C 533.92512 586.64438 534.01695 612.47622 516.98006 612.565 Z" stroke-linecap="round"/>
</g>
		<g transform="matrix(1 0 0 1 -166.0203 197.565)">
<path style="stroke: none; stroke-width: 1; stroke-dasharray: none; stroke-linecap: butt; stroke-dashoffset: 0; stroke-linejoin: miter; stroke-miterlimit: 4; is-custom-font: none; font-file-url: none; fill: rgb(204,204,204); fill-rule: nonzero; opacity: 1;" transform=" translate(-433.9796, -647.565)" d="M 516.98006 660.565 h -166 c -16.957 -0.08167 -17.0275 -25.9115 0.00084 -26 l 165.99916 0 C 533.92512 634.64438 534.01695 660.47622 516.98006 660.565 Z" stroke-linecap="round"/>
</g>
		<g transform="matrix(1 0 0 1 -166.0203 245.565)">
<path style="stroke: none; stroke-width: 1; stroke-dasharray: none; stroke-linecap: butt; stroke-dashoffset: 0; stroke-linejoin: miter; stroke-miterlimit: 4; is-custom-font: none; font-file-url: none; fill: rgb(204,204,204); fill-rule: nonzero; opacity: 1;" transform=" translate(-433.9796, -695.565)" d="M 516.98006 708.565 h -166 c -16.957 -0.08167 -17.0275 -25.9115 0.00084 -26 l 165.99916 0 C 533.92512 682.64438 534.01695 708.47622 516.98006 708.565 Z" stroke-linecap="round"/>
</g>
		<g transform="matrix(1 0 0 1 -21.0204 -70.935)">
<path style="stroke: none; stroke-width: 1; stroke-dasharray: none; stroke-linecap: butt; stroke-dashoffset: 0; stroke-linejoin: miter; stroke-miterlimit: 4; is-custom-font: none; font-file-url: none; fill: rgb(161,124,241); fill-rule: nonzero; opacity: 1;" transform=" translate(-578.9796, -379.065)" d="M 578.97965 405.065 a 26 26 0 1 1 26 -26 A 26.02947 26.02947 0 0 1 578.97965 405.065 Z" stroke-linecap="round"/>
</g>
		<g transform="matrix(1 0 0 1 -21.0204 -70.935)">
<path style="stroke: none; stroke-width: 1; stroke-dasharray: none; stroke-linecap: butt; stroke-dashoffset: 0; stroke-linejoin: miter; stroke-miterlimit: 4; is-custom-font: none; font-file-url: none; fill: rgb(255,255,255); fill-rule: nonzero; opacity: 1;" transform=" translate(-578.9796, -379.065)" d="M 590.97965 378.065 h -11 v -12.5 a 1 1 0 0 0 -2 0 v 12.5 h -11 a 1 1 0 0 0 0 2 h 11 v 12.5 a 1 1 0 1 0 2 0 v -12.5 h 11 a 1 1 0 0 0 0 -2 Z" stroke-linecap="round"/>
</g>
		<g transform="matrix(1 0 0 1 -166.0204 44.065)">
<path style="stroke: none; stroke-width: 1; stroke-dasharray: none; stroke-linecap: butt; stroke-dashoffset: 0; stroke-linejoin: miter; stroke-miterlimit: 4; is-custom-font: none; font-file-url: none; fill: rgb(161,124,241); fill-rule: nonzero; opacity: 1;" transform=" translate(-433.9796, -494.065)" d="M 513.97965 555.36481 h -160 a 16.51867 16.51867 0 0 1 -16.5 -16.5 V 449.2652 a 16.51866 16.51866 0 0 1 16.5 -16.5 h 160 a 16.51867 16.51867 0 0 1 16.5 16.5 v 89.59961 A 16.51868 16.51868 0 0 1 513.97965 555.36481 Z" stroke-linecap="round"/>
</g>
</g>
</g>
</svg>