<svg xmlns="http://www.w3.org/2000/svg" xmlns:xlink="http://www.w3.org/1999/xlink" version="1.1" width="1000" height="1000" viewBox="0 0 1000 1000" xml:space="preserve">
<desc>Created with Fabric.js 3.5.0</desc>
<defs>
</defs>
<rect x="0" y="0" width="100%" height="100%" fill="#ffffff"/>
<g transform="matrix(0.2857 0 0 0.2857 449.999 449.999)" id="195906">
<g style="" vector-effect="non-scaling-stroke">
		<g transform="matrix(5.8333 0 0 5.8333 0.004 -14.5544)" id="SVGRepo_tracerCarrier">
<path style="stroke: rgb(255,255,255); stroke-width: 1.5; stroke-dasharray: none; stroke-linecap: round; stroke-dashoffset: 0; stroke-linejoin: round; stroke-miterlimit: 4; is-custom-font: none; font-file-url: none; fill: none; fill-rule: nonzero; opacity: 0.4;" transform=" translate(-12.0007, -9.505)" d="M 12.1207 12.78 C 12.0507 12.77 11.9607 12.77 11.8807 12.78 C 10.1207 12.72 8.7207 11.28 8.7207 9.50998 C 8.7207 7.69998 10.1807 6.22998 12.0007 6.22998 C 13.8107 6.22998 15.2807 7.69998 15.2807 9.50998 C 15.2707 11.28 13.8807 12.72 12.1207 12.78 Z" stroke-linecap="round"/>
</g>
		<g transform="matrix(5.8333 0 0 5.8333 -0.0015 39.1859)" id="SVGRepo_tracerCarrier">
<path style="stroke: rgb(255,255,255); stroke-width: 1.5; stroke-dasharray: none; stroke-linecap: round; stroke-dashoffset: 0; stroke-linejoin: round; stroke-miterlimit: 4; is-custom-font: none; font-file-url: none; fill: none; fill-rule: nonzero; opacity: 0.34;" transform=" translate(-11.9998, -18.7176)" d="M 18.7398 19.3801 C 16.9598 21.0101 14.5998 22.0001 11.9998 22.0001 C 9.39977 22.0001 7.03977 21.0101 5.25977 19.3801 C 5.35977 18.4401 5.95977 17.5201 7.02977 16.8001 C 9.76977 14.9801 14.2498 14.9801 16.9698 16.8001 C 18.0398 17.5201 18.6398 18.4401 18.7398 19.3801 Z" stroke-linecap="round"/>
</g>
		<g transform="matrix(5.8333 0 0 5.8333 -0.0003 -0.0003)" id="SVGRepo_tracerCarrier">
<path style="stroke: rgb(255,255,255); stroke-width: 1.5; stroke-dasharray: none; stroke-linecap: round; stroke-dashoffset: 0; stroke-linejoin: round; stroke-miterlimit: 4; is-custom-font: none; font-file-url: none; fill: none; fill-rule: nonzero; opacity: 1;" transform=" translate(-12, -12)" d="M 12 22 C 17.5228 22 22 17.5228 22 12 C 22 6.47715 17.5228 2 12 2 C 6.47715 2 2 6.47715 2 12 C 2 17.5228 6.47715 22 12 22 Z" stroke-linecap="round"/>
</g>
		<g transform="matrix(5.8333 0 0 5.8333 0.0038 -14.5545)" id="SVGRepo_iconCarrier">
<path style="stroke: rgb(255,255,255); stroke-width: 0.0002; stroke-dasharray: none; stroke-linecap: round; stroke-dashoffset: 0; stroke-linejoin: round; stroke-miterlimit: 4; is-custom-font: none; font-file-url: none; fill: none; fill-rule: nonzero; opacity: 0.4;" transform=" translate(-12.0007, -9.505)" d="M 12.1207 12.78 C 12.0507 12.77 11.9607 12.77 11.8807 12.78 C 10.1207 12.72 8.7207 11.28 8.7207 9.50998 C 8.7207 7.69998 10.1807 6.22998 12.0007 6.22998 C 13.8107 6.22998 15.2807 7.69998 15.2807 9.50998 C 15.2707 11.28 13.8807 12.72 12.1207 12.78 Z" stroke-linecap="round"/>
</g>
		<g transform="matrix(5.8333 0 0 5.8333 -0.0016 39.1858)" id="SVGRepo_iconCarrier">
<path style="stroke: rgb(255,255,255); stroke-width: 0.0002; stroke-dasharray: none; stroke-linecap: round; stroke-dashoffset: 0; stroke-linejoin: round; stroke-miterlimit: 4; is-custom-font: none; font-file-url: none; fill: none; fill-rule: nonzero; opacity: 0.34;" transform=" translate(-11.9998, -18.7176)" d="M 18.7398 19.3801 C 16.9598 21.0101 14.5998 22.0001 11.9998 22.0001 C 9.39977 22.0001 7.03977 21.0101 5.25977 19.3801 C 5.35977 18.4401 5.95977 17.5201 7.02977 16.8001 C 9.76977 14.9801 14.2498 14.9801 16.9698 16.8001 C 18.0398 17.5201 18.6398 18.4401 18.7398 19.3801 Z" stroke-linecap="round"/>
</g>
		<g transform="matrix(5.8333 0 0 5.8333 -0.0004 -0.0004)" id="SVGRepo_iconCarrier">
<path style="stroke: rgb(255,255,255); stroke-width: 0.0002; stroke-dasharray: none; stroke-linecap: round; stroke-dashoffset: 0; stroke-linejoin: round; stroke-miterlimit: 4; is-custom-font: none; font-file-url: none; fill: none; fill-rule: nonzero; opacity: 1;" transform=" translate(-12, -12)" d="M 12 22 C 17.5228 22 22 17.5228 22 12 C 22 6.47715 17.5228 2 12 2 C 6.47715 2 2 6.47715 2 12 C 2 17.5228 6.47715 22 12 22 Z" stroke-linecap="round"/>
</g>
</g>
</g>
</svg>