<svg xmlns="http://www.w3.org/2000/svg" xmlns:xlink="http://www.w3.org/1999/xlink" version="1.1" width="1000" height="1000" viewBox="0 0 1000 1000" xml:space="preserve">
<desc>Created with Fabric.js 3.5.0</desc>
<defs>
</defs>
<rect x="0" y="0" width="100%" height="100%" fill="#ffffff"/>
<g transform="matrix(0.2367 0 0 0.2367 174.5845 120.4412)" id="174887">
<g style="" vector-effect="non-scaling-stroke">
		<g transform="matrix(1 0 0 1 -0.2327 -200.0363)">
<path style="stroke: none; stroke-width: 1; stroke-dasharray: none; stroke-linecap: butt; stroke-dashoffset: 0; stroke-linejoin: miter; stroke-miterlimit: 4; is-custom-font: none; font-file-url: none; fill: rgb(242,242,242); fill-rule: nonzero; opacity: 1;" transform=" translate(-599.7673, -249.9637)" d="M 854.05236 366.72793 H 345.48229 a 17.11177 17.11177 0 0 1 -17.092 -17.092 V 150.29137 a 17.11177 17.11177 0 0 1 17.092 -17.092 H 854.05236 a 17.11177 17.11177 0 0 1 17.092 17.092 V 349.636 A 17.11177 17.11177 0 0 1 854.05236 366.72793 Z" stroke-linecap="round"/>
</g>
		<g transform="matrix(1 0 0 1 -0.2312 -200.0319)">
<path style="stroke: none; stroke-width: 1; stroke-dasharray: none; stroke-linecap: butt; stroke-dashoffset: 0; stroke-linejoin: miter; stroke-miterlimit: 4; is-custom-font: none; font-file-url: none; fill: rgb(255,255,255); fill-rule: nonzero; opacity: 1;" transform=" translate(-599.7688, -249.9681)" d="M 735.44243 355.827 H 426.21 a 87.01423 87.01423 0 0 1 -86.916 -86.916 V 231.02584 a 87.01476 87.01476 0 0 1 86.916 -86.91662 h 347.1176 a 87.01476 87.01476 0 0 1 86.916 86.91662 A 124.94266 124.94266 0 0 1 735.44243 355.827 Z" stroke-linecap="round"/>
</g>
		<g transform="matrix(1 0 0 1 -46.5302 -253.2331)">
<path style="stroke: none; stroke-width: 1; stroke-dasharray: none; stroke-linecap: butt; stroke-dashoffset: 0; stroke-linejoin: miter; stroke-miterlimit: 4; is-custom-font: none; font-file-url: none; fill: rgb(230,230,230); fill-rule: nonzero; opacity: 1;" transform=" translate(-553.4698, -196.767)" d="M 655.673 201.175 H 451.26661 a 4.408 4.408 0 1 1 0 -8.81606 H 655.673 a 4.408 4.408 0 0 1 0 8.81606 Z" stroke-linecap="round"/>
</g>
		<g transform="matrix(1 0 0 1 5.2069 -206.2023)">
<path style="stroke: none; stroke-width: 1; stroke-dasharray: none; stroke-linecap: butt; stroke-dashoffset: 0; stroke-linejoin: miter; stroke-miterlimit: 4; is-custom-font: none; font-file-url: none; fill: rgb(230,230,230); fill-rule: nonzero; opacity: 1;" transform=" translate(-605.2068, -243.7978)" d="M 759.14708 248.20578 H 451.26661 a 4.408 4.408 0 1 1 0 -8.81606 H 759.14708 a 4.408 4.408 0 0 1 0 8.81606 Z" stroke-linecap="round"/>
</g>
		<g transform="matrix(1 0 0 1 5.2069 -159.1715)">
<path style="stroke: none; stroke-width: 1; stroke-dasharray: none; stroke-linecap: butt; stroke-dashoffset: 0; stroke-linejoin: miter; stroke-miterlimit: 4; is-custom-font: none; font-file-url: none; fill: rgb(230,230,230); fill-rule: nonzero; opacity: 1;" transform=" translate(-605.2068, -290.8286)" d="M 759.14708 295.23659 H 451.26661 a 4.408 4.408 0 1 1 0 -8.81606 H 759.14708 a 4.408 4.408 0 0 1 0 8.81606 Z" stroke-linecap="round"/>
</g>
		<g transform="matrix(1 0 0 1 5.2069 -159.1715)">
<path style="stroke: none; stroke-width: 1; stroke-dasharray: none; stroke-linecap: butt; stroke-dashoffset: 0; stroke-linejoin: miter; stroke-miterlimit: 4; is-custom-font: none; font-file-url: none; fill: rgb(230,230,230); fill-rule: nonzero; opacity: 1;" transform=" translate(-605.2068, -290.8286)" d="M 759.14708 295.23659 H 451.26661 a 4.408 4.408 0 1 1 0 -8.81606 H 759.14708 a 4.408 4.408 0 0 1 0 8.81606 Z" stroke-linecap="round"/>
</g>
		<g transform="matrix(1 0 0 1 51.5848 -183.1013)">
<path style="stroke: none; stroke-width: 1; stroke-dasharray: none; stroke-linecap: butt; stroke-dashoffset: 0; stroke-linejoin: miter; stroke-miterlimit: 4; is-custom-font: none; font-file-url: none; fill: rgb(255,182,182); fill-rule: nonzero; opacity: 1;" transform=" translate(-651.5848, -266.8988)" d="M 634.10291 253.6037 a 9.08847 9.08847 0 0 0 11.00741 8.54713 l 16.81052 27.57777 l 7.15453 -15.18214 L 652.015 250.6857 a 9.13775 9.13775 0 0 0 -17.912 2.918 Z" stroke-linecap="round"/>
</g>
		<g transform="matrix(1 0 0 1 105.064 -143.1436)">
<path style="stroke: none; stroke-width: 1; stroke-dasharray: none; stroke-linecap: butt; stroke-dashoffset: 0; stroke-linejoin: miter; stroke-miterlimit: 4; is-custom-font: none; font-file-url: none; fill: rgb(63,61,86); fill-rule: nonzero; opacity: 1;" transform=" translate(-705.0639, -306.8564)" d="M 760.255 332.63993 L 702.3227 301.21629 L 684.04961 284.0724 s -7.94382 -2.1269 -5.02 -4.70983 s -5.40826 -5.074 -5.40826 -5.074 l -9.80947 -9.20329 L 649.8729 274.948 l 4.0341 6.25338 s -0.27766 10.35216 5.39346 8.36056 s 4.25394 6.59416 4.25394 6.59416 l 33.84976 52.47148 Z" stroke-linecap="round"/>
</g>
		<g transform="matrix(1 0 0 1 -10.7548 -203.5519)">
<circle style="stroke: none; stroke-width: 1; stroke-dasharray: none; stroke-linecap: butt; stroke-dashoffset: 0; stroke-linejoin: miter; stroke-miterlimit: 4; is-custom-font: none; font-file-url: none; fill: rgb(172,134,249); fill-rule: nonzero; opacity: 1;" cx="0" cy="0" r="56.58599"/>
</g>
		<g transform="matrix(1 0 0 1 151.7518 272.1094)">
<polygon style="stroke: none; stroke-width: 1; stroke-dasharray: none; stroke-linecap: butt; stroke-dashoffset: 0; stroke-linejoin: miter; stroke-miterlimit: 4; is-custom-font: none; font-file-url: none; fill: rgb(255,182,182); fill-rule: nonzero; opacity: 1;" points="8.6825,22.691 -3.0835,22.691 -8.6825,-22.691 8.6825,-22.691 8.6825,22.691 "/>
</g>
		<g transform="matrix(1 0 0 1 146.039 300.403)">
<path style="stroke: none; stroke-width: 1; stroke-dasharray: none; stroke-linecap: butt; stroke-dashoffset: 0; stroke-linejoin: miter; stroke-miterlimit: 4; is-custom-font: none; font-file-url: none; fill: rgb(47,46,65); fill-rule: nonzero; opacity: 1;" transform=" translate(-746.039, -750.403)" d="M 766.64449 765.186 h -8.43765 l -1.50609 -7.96615 l -3.8573 7.96614 H 730.46478 a 5.03052 5.03052 0 0 1 -2.85851 -9.17017 l 17.87094 -12.34231 V 735.62 l 18.79712 1.12193 Z" stroke-linecap="round"/>
</g>
		<g transform="matrix(1 0 0 1 57.6498 272.1094)">
<polygon style="stroke: none; stroke-width: 1; stroke-dasharray: none; stroke-linecap: butt; stroke-dashoffset: 0; stroke-linejoin: miter; stroke-miterlimit: 4; is-custom-font: none; font-file-url: none; fill: rgb(255,182,182); fill-rule: nonzero; opacity: 1;" points="8.6825,22.691 -3.0835,22.691 -8.6825,-22.691 8.6825,-22.691 8.6825,22.691 "/>
</g>
		<g transform="matrix(1 0 0 1 51.9368 300.403)">
<path style="stroke: none; stroke-width: 1; stroke-dasharray: none; stroke-linecap: butt; stroke-dashoffset: 0; stroke-linejoin: miter; stroke-miterlimit: 4; is-custom-font: none; font-file-url: none; fill: rgb(47,46,65); fill-rule: nonzero; opacity: 1;" transform=" translate(-651.9369, -750.403)" d="M 672.54234 765.186 h -8.43765 l -1.50608 -7.96615 L 658.7413 765.186 H 636.36263 a 5.03052 5.03052 0 0 1 -2.85851 -9.17017 l 17.871 -12.34231 V 735.62 l 18.79711 1.12193 Z" stroke-linecap="round"/>
</g>
		<g transform="matrix(1 0 0 1 118.2577 -14.6158)">
<rect style="stroke: none; stroke-width: 1; stroke-dasharray: none; stroke-linecap: butt; stroke-dashoffset: 0; stroke-linejoin: miter; stroke-miterlimit: 4; is-custom-font: none; font-file-url: none; fill: rgb(255,182,182); fill-rule: nonzero; opacity: 1;" x="-29.69245" y="-33.8037" rx="0" ry="0" width="59.3849" height="67.6074"/>
</g>
		<g transform="matrix(1 0 0 1 93.3618 129.2783)">
<path style="stroke: none; stroke-width: 1; stroke-dasharray: none; stroke-linecap: butt; stroke-dashoffset: 0; stroke-linejoin: miter; stroke-miterlimit: 4; is-custom-font: none; font-file-url: none; fill: rgb(47,46,65); fill-rule: nonzero; opacity: 1;" transform=" translate(-693.3618, -579.2783)" d="M 689.9357 434.92742 l -10.04975 11.877 L 662.5273 483.34891 L 618.788 587.41832 l -9.25023 22.00919 l 7.47021 38.90734 s 1.20911 27.41093 1.20911 31.89768 c 0 9.13613 7.64134 14.19843 7.64134 14.19843 l 5.606 29.19819 l 54.36 -2.284 s -1.89668 -32.18465 -13.28212 -40.30307 s -16.6191 -50.42877 -16.6191 -50.42877 l -6.1865 -18.77224 l 60.29846 -71.47763 l 0.38919 24.98513 l 0.18838 12.09342 s -8.83024 78.65618 1.463 93.921 s 0.20981 13.46892 0.20981 13.46892 l 0.49048 31.48835 l 64.40973 0.45681 L 762.976 626.12129 s -7.2153 -5.6971 -3.35489 -11.42384 s -3.74157 -12.74053 -3.74157 -12.74053 l 3.40954 -70.77248 s -3.7751 -12.22439 0.66547 -13.81333 s 0.583 -12.10132 0.583 -12.10132 l 0.65994 -13.69836 l -13.24739 -42.483 Z" stroke-linecap="round"/>
</g>
		<g transform="matrix(1 0 0 1 118.186 -84.2341)">
<path style="stroke: none; stroke-width: 1; stroke-dasharray: none; stroke-linecap: butt; stroke-dashoffset: 0; stroke-linejoin: miter; stroke-miterlimit: 4; is-custom-font: none; font-file-url: none; fill: rgb(63,61,86); fill-rule: nonzero; opacity: 1;" transform=" translate(-718.186, -365.7659)" d="M 748.86374 401.58054 l 6.39529 -19.18588 l 4.56807 -6.39529 l 1.82722 -18.27226 c 0 -49.33511 -11.00445 -41.11978 -11.00445 -41.11978 l -6.3542 -17.35146 l -29.23561 -0.91361 L 696.331 316.15772 l -15.53142 5.48167 l -6.082 31.60212 l 11.10688 33.72122 l 2.74084 18.27226 c -5.22846 9.6521 -4.78621 5.08671 -0.45681 12.33378 l 51.61914 14.161 c 18.27226 6.39529 18.27226 -10.04974 14.60827 -14.161 C 750.672 413.45751 748.86374 401.58054 748.86374 401.58054 Z" stroke-linecap="round"/>
</g>
		<g transform="matrix(1 0 0 1 125.9012 -184.8931)">
<circle style="stroke: none; stroke-width: 1; stroke-dasharray: none; stroke-linecap: butt; stroke-dashoffset: 0; stroke-linejoin: miter; stroke-miterlimit: 4; is-custom-font: none; font-file-url: none; fill: rgb(255,182,182); fill-rule: nonzero; opacity: 1;" cx="0" cy="0" r="27.10245"/>
</g>
		<g transform="matrix(1 0 0 1 99.5059 -142.1659)">
<path style="stroke: none; stroke-width: 1; stroke-dasharray: none; stroke-linecap: butt; stroke-dashoffset: 0; stroke-linejoin: miter; stroke-miterlimit: 4; is-custom-font: none; font-file-url: none; fill: rgb(47,46,65); fill-rule: nonzero; opacity: 1;" transform=" translate(-699.5059, -307.8341)" d="M 699.50588 307.8341" stroke-linecap="round"/>
</g>
		<g transform="matrix(1 0 0 1 129.582 -175.06)">
<path style="stroke: none; stroke-width: 1; stroke-dasharray: none; stroke-linecap: butt; stroke-dashoffset: 0; stroke-linejoin: miter; stroke-miterlimit: 4; is-custom-font: none; font-file-url: none; fill: rgb(47,46,65); fill-rule: nonzero; opacity: 1;" transform=" translate(-729.582, -274.94)" d="M 762.08369 301.28407 a 3.32909 3.32909 0 0 1 -1.8546 4.86957 c -3.63616 1.206 -5.87453 4.72337 -8.48745 7.53731 c -2.60383 2.8048 -6.79728 5.1345 -10.12284 3.225 c -3.31642 -1.90027 -3.54483 -6.75155 -6.32219 -9.38276 c -2.70432 -2.55811 -7.19928 -2.24751 -10.37869 -0.30151 l -0.09507 0.05848 a 3.35133 3.35133 0 0 1 -5.12711 -3.40958 q 1.671 -8.88678 3.34014 -17.77163 a 59.76117 59.76117 0 0 1 -12.50736 18.9118 a 13.757 13.757 0 0 1 -5.42687 3.8189 c -1.90027 0.603 -3.74579 -1.36128 -5.59131 -1.005 c 4.58636 -4.01077 20.00815 -29.71986 17.249 -46.90492 q -4.865 0.5482 -9.72994 1.09635 A 8.94324 8.94324 0 0 0 704.855 257.924 a 10.51041 10.51041 0 0 1 -0.55734 4.41271 c -1.35213 0.15535 -2.71341 0.30151 -4.06554 0.4568 c -1.882 0.21017 -3.92858 0.39285 -5.54563 -0.59381 c -2.69517 -1.64449 -2.77742 -5.53649 -2.01 -8.60628 c 2.2475 -8.926 9.063 -16.39022 17.40431 -20.30045 c 8.3413 -3.90115 10.80806 4.78732 19.597 2.01 c 17.35864 -5.48168 30.66085 3.892 35.34769 21.28717 C 768.96323 271.18051 766.10361 286.66626 762.08369 301.28407 Z" stroke-linecap="round"/>
</g>
		<g transform="matrix(1 0 0 1 216.6498 298.1044)">
<path style="stroke: none; stroke-width: 1; stroke-dasharray: none; stroke-linecap: butt; stroke-dashoffset: 0; stroke-linejoin: miter; stroke-miterlimit: 4; is-custom-font: none; font-file-url: none; fill: rgb(240,240,240); fill-rule: nonzero; opacity: 1;" transform=" translate(-816.6498, -748.1044)" d="M 837.11581 765.77552 H 803.92929 l -0.14258 -0.25879 c -0.42431 -0.76953 -0.834 -1.585 -1.2168 -2.42285 c -3.41845 -7.31836 -4.86328 -15.68848 -6.13818 -23.07325 l -0.96 -5.5664 a 3.43689 3.43689 0 0 1 5.41016 -3.36231 q 7.56517 5.5049 15.13623 10.999 c 1.91113 1.39062 4.09375 3 6.18408 4.73925 c 0.20166 -0.97949 0.4126 -1.96191 0.62353 -2.93066 a 3.43916 3.43916 0 0 1 6.28077 -1.08594 l 3.88281 6.23828 c 2.832 4.55567 5.33154 9.04493 4.82226 13.88672 a 0.756 0.756 0 0 1 -0.01318 0.17578 a 10.94679 10.94679 0 0 1 -0.56348 2.33106 Z" stroke-linecap="round"/>
</g>
		<g transform="matrix(1 0 0 1 112.7465 315.4562)">
<path style="stroke: none; stroke-width: 1; stroke-dasharray: none; stroke-linecap: butt; stroke-dashoffset: 0; stroke-linejoin: miter; stroke-miterlimit: 4; is-custom-font: none; font-file-url: none; fill: rgb(202,202,202); fill-rule: nonzero; opacity: 1;" transform=" translate(-712.7465, -765.4563)" d="M 870.42521 766.49329 l -315.3575 0.30731 a 1.19069 1.19069 0 0 1 0 -2.38135 l 315.3575 -0.30731 a 1.19069 1.19069 0 0 1 0 2.38135 Z" stroke-linecap="round"/>
</g>
		<g transform="matrix(1 0 0 1 -26.2701 -150.2946)">
<path style="stroke: none; stroke-width: 1; stroke-dasharray: none; stroke-linecap: butt; stroke-dashoffset: 0; stroke-linejoin: miter; stroke-miterlimit: 4; is-custom-font: none; font-file-url: none; fill: rgb(63,61,86); fill-rule: nonzero; opacity: 1;" transform=" translate(-573.7299, -299.7054)" d="M 584.10145 322.60868 l -34.688 -29.29381 a 5.86536 5.86536 0 0 1 -0.69609 -8.25652 l 6.38441 -7.56005 a 5.86537 5.86537 0 0 1 8.25653 -0.6961 l 34.688 29.29381 a 5.86536 5.86536 0 0 1 0.6961 8.25652 l -6.38442 7.56006 A 5.86537 5.86537 0 0 1 584.10145 322.60868 Z" stroke-linecap="round"/>
</g>
		<g transform="matrix(1 0 0 1 -25.818 -151.4281)">
<path style="stroke: none; stroke-width: 1; stroke-dasharray: none; stroke-linecap: butt; stroke-dashoffset: 0; stroke-linejoin: miter; stroke-miterlimit: 4; is-custom-font: none; font-file-url: none; fill: rgb(255,255,255); fill-rule: nonzero; opacity: 1;" transform=" translate(-574.182, -298.5719)" d="M 551.2336 285.66783 a 3.161 3.161 0 0 0 0.37511 4.44934 l 34.688 29.29381 a 3.16093 3.16093 0 0 0 4.44933 -0.37512 l 6.38442 -7.56 a 3.161 3.161 0 0 0 -0.37512 -4.44934 l -34.688 -29.29381 a 3.161 3.161 0 0 0 -4.44934 0.37512 Z" stroke-linecap="round"/>
</g>
		<g transform="matrix(1 0 0 1 -32.2124 -159.1702)">
<path style="stroke: none; stroke-width: 1; stroke-dasharray: none; stroke-linecap: butt; stroke-dashoffset: 0; stroke-linejoin: miter; stroke-miterlimit: 4; is-custom-font: none; font-file-url: none; fill: rgb(172,134,249); fill-rule: nonzero; opacity: 1;" transform=" translate(-567.7876, -290.8298)" d="M 571.59773 297.05559 a 1.33329 1.33329 0 0 1 -1.05444 0.55768 l -5.45025 0.12517 a 1.33366 1.33366 0 1 1 -0.06117 -2.66662 l 3.56552 -0.082 l -3.5114 -9.26539 a 1.33372 1.33372 0 0 1 2.49431 -0.94531 l 4.17956 11.02823 a 1.33428 1.33428 0 0 1 -0.14089 1.21782 Z" stroke-linecap="round"/>
</g>
		<g transform="matrix(1 0 0 1 -16.523 -132.1481)">
<path style="stroke: none; stroke-width: 1; stroke-dasharray: none; stroke-linecap: butt; stroke-dashoffset: 0; stroke-linejoin: miter; stroke-miterlimit: 4; is-custom-font: none; font-file-url: none; fill: rgb(255,182,182); fill-rule: nonzero; opacity: 1;" transform=" translate(-583.477, -317.8519)" d="M 572.29679 299.38408 a 9.08846 9.08846 0 0 1 7.29959 11.8715 l 25.5864 19.70946 l -15.87006 5.46132 l -21.86426 -19.5537 a 9.13775 9.13775 0 0 1 4.84831 -17.48852 Z" stroke-linecap="round"/>
</g>
		<g transform="matrix(1 0 0 1 48.2552 -103.9946)">
<path style="stroke: none; stroke-width: 1; stroke-dasharray: none; stroke-linecap: butt; stroke-dashoffset: 0; stroke-linejoin: miter; stroke-miterlimit: 4; is-custom-font: none; font-file-url: none; fill: rgb(63,61,86); fill-rule: nonzero; opacity: 1;" transform=" translate(-648.2552, -346.0054)" d="M 705.50514 309.12932 l -65.50929 40.27784 s -26.4126 -9.77273 -21.25071 -14.29686 s -11.2708 -7.58266 -11.2708 -7.58266 l -18.15322 -12.213 l -10.534 12.24231 s 1.91937 19.88518 5.18517 16.442 s 8.14738 5.96269 8.14738 5.96269 s 1.44254 10.50246 10.73916 7.8595 S 637.101 382.88158 637.101 382.88158 l 80.62233 -30.06905 Z" stroke-linecap="round"/>
</g>
		<g transform="matrix(1 0 0 1 -6.7451 -203.7423)">
<path style="stroke: none; stroke-width: 1; stroke-dasharray: none; stroke-linecap: butt; stroke-dashoffset: 0; stroke-linejoin: miter; stroke-miterlimit: 4; is-custom-font: none; font-file-url: none; fill: rgb(255,255,255); fill-rule: nonzero; opacity: 1;" transform=" translate(-593.2549, -246.2578)" d="M 587.25535 269.147 a 4.89054 4.89054 0 0 1 -3.91317 -1.95719 l -11.99792 -15.99749 a 4.89185 4.89185 0 1 1 7.82715 -5.87 l 7.84945 10.46514 l 20.16029 -30.24 a 4.89206 4.89206 0 0 1 8.14088 5.42726 l -23.99584 35.99375 a 4.894 4.894 0 0 1 -3.93468 2.177 C 587.34613 269.14624 587.30074 269.147 587.25535 269.147 Z" stroke-linecap="round"/>
</g>
</g>
</g>
</svg>