<svg xmlns="http://www.w3.org/2000/svg" xmlns:xlink="http://www.w3.org/1999/xlink" version="1.1" width="1000" height="1000" viewBox="0 0 1000 1000" xml:space="preserve">
<desc>Created with Fabric.js 3.5.0</desc>
<defs>
</defs>
<rect x="0" y="0" width="100%" height="100%" fill="#ffffff"/>
<g transform="matrix(0 -0.0394 0.0358 0 140.1861 115.6291)" id="35780">
<g style="">
		<g transform="matrix(22.8571 0 0 22.8571 -276.1144 -0.0008)" id="Layer_2">
<path style="stroke: none; stroke-width: 1; stroke-dasharray: none; stroke-linecap: butt; stroke-dashoffset: 0; stroke-linejoin: miter; stroke-miterlimit: 4; is-custom-font: none; font-file-url: none; fill: rgb(161,115,251); fill-rule: nonzero; opacity: 1;" transform=" translate(-5.42, -17.5)" d="M 5.42 34.44 a 1.25 1.25 0 0 1 -1.25 -1.25 V 1.81 a 1.25 1.25 0 0 1 2.5 0 V 33.19 A 1.25 1.25 0 0 1 5.42 34.44 Z" stroke-linecap="round"/>
</g>
		<g transform="matrix(22.8571 0 0 22.8571 -276.1145 197.9428)" id="Layer_2">
<path style="stroke: none; stroke-width: 1; stroke-dasharray: none; stroke-linecap: butt; stroke-dashoffset: 0; stroke-linejoin: miter; stroke-miterlimit: 4; is-custom-font: none; font-file-url: none; fill: rgb(161,115,251); fill-rule: nonzero; opacity: 1;" transform=" translate(-5.42, -26.16)" d="M 9.34 27.41 H 1.5 a 1.25 1.25 0 0 1 0 -2.5 H 9.34 a 1.25 1.25 0 0 1 0 2.5 Z" stroke-linecap="round"/>
</g>
		<g transform="matrix(22.8571 0 0 22.8571 276.1142 -0.0008)" id="Layer_2">
<path style="stroke: none; stroke-width: 1; stroke-dasharray: none; stroke-linecap: butt; stroke-dashoffset: 0; stroke-linejoin: miter; stroke-miterlimit: 4; is-custom-font: none; font-file-url: none; fill: rgb(161,115,251); fill-rule: nonzero; opacity: 1;" transform=" translate(-29.58, -17.5)" d="M 29.58 34.44 a 1.25 1.25 0 0 1 -1.25 -1.25 V 1.81 a 1.25 1.25 0 1 1 2.5 0 V 33.19 A 1.25 1.25 0 0 1 29.58 34.44 Z" stroke-linecap="round"/>
</g>
		<g transform="matrix(22.8571 0 0 22.8571 276.1141 197.9428)" id="Layer_2">
<path style="stroke: none; stroke-width: 1; stroke-dasharray: none; stroke-linecap: butt; stroke-dashoffset: 0; stroke-linejoin: miter; stroke-miterlimit: 4; is-custom-font: none; font-file-url: none; fill: rgb(161,115,251); fill-rule: nonzero; opacity: 1;" transform=" translate(-29.58, -26.16)" d="M 33.5 27.41 H 25.66 a 1.25 1.25 0 0 1 0 -2.5 H 33.5 a 1.25 1.25 0 0 1 0 2.5 Z" stroke-linecap="round"/>
</g>
		<g transform="matrix(22.8571 0 0 22.8571 -0.0001 -0.0008)" id="Layer_2">
<path style="stroke: none; stroke-width: 1; stroke-dasharray: none; stroke-linecap: butt; stroke-dashoffset: 0; stroke-linejoin: miter; stroke-miterlimit: 4; is-custom-font: none; font-file-url: none; fill: rgb(161,115,251); fill-rule: nonzero; opacity: 1;" transform=" translate(-17.5, -17.5)" d="M 17.5 34.44 a 1.25 1.25 0 0 1 -1.25 -1.25 V 1.81 a 1.25 1.25 0 1 1 2.5 0 V 33.19 A 1.25 1.25 0 0 1 17.5 34.44 Z" stroke-linecap="round"/>
</g>
		<g transform="matrix(22.8571 0 0 22.8571 -0.0002 -197.943)" id="Layer_2">
<path style="stroke: none; stroke-width: 1; stroke-dasharray: none; stroke-linecap: butt; stroke-dashoffset: 0; stroke-linejoin: miter; stroke-miterlimit: 4; is-custom-font: none; font-file-url: none; fill: rgb(161,115,251); fill-rule: nonzero; opacity: 1;" transform=" translate(-17.5, -8.84)" d="M 21.42 10.09 H 13.58 a 1.25 1.25 0 0 1 0 -2.5 h 7.84 a 1.25 1.25 0 0 1 0 2.5 Z" stroke-linecap="round"/>
</g>
</g>
</g>
</svg>