<svg xmlns="http://www.w3.org/2000/svg" xmlns:xlink="http://www.w3.org/1999/xlink" version="1.1" width="1000" height="1000" viewBox="0 0 1000 1000" xml:space="preserve">
<desc>Created with Fabric.js 3.5.0</desc>
<defs>
</defs>
<rect x="0" y="0" width="100%" height="100%" fill="#ffffff"/>
<g transform="matrix(1 0 0 1 500 500)" id="551520">
<path style="stroke: none; stroke-width: 1; stroke-dasharray: none; stroke-linecap: butt; stroke-dashoffset: 0; stroke-linejoin: miter; stroke-miterlimit: 4; is-custom-font: none; font-file-url: none; fill: rgb(161,115,251); fill-rule: nonzero; opacity: 1;" vector-effect="non-scaling-stroke" transform=" translate(-164.972, -164.971)" d="M 329.208 126.666 c -1.765 -5.431 -6.459 -9.389 -12.109 -10.209 l -95.822 -13.922 l -42.854 -86.837 c -2.527 -5.12 -7.742 -8.362 -13.451 -8.362 c -5.71 0 -10.925 3.242 -13.451 8.362 l -42.851 86.836 l -95.825 13.922 c -5.65 0.821 -10.345 4.779 -12.109 10.209 c -1.764 5.431 -0.293 11.392 3.796 15.377 l 69.339 67.582 L 57.496 305.07 c -0.965 5.628 1.348 11.315 5.967 14.671 c 2.613 1.899 5.708 2.865 8.818 2.865 c 2.387 0 4.784 -0.569 6.979 -1.723 l 85.711 -45.059 l 85.71 45.059 c 2.208 1.161 4.626 1.714 7.021 1.723 c 8.275 -0.012 14.979 -6.723 14.979 -15 c 0 -1.152 -0.13 -2.275 -0.376 -3.352 l -16.233 -94.629 l 69.339 -67.583 C 329.501 138.057 330.972 132.096 329.208 126.666 z" stroke-linecap="round"/>
</g>
</svg>