<svg xmlns="http://www.w3.org/2000/svg" xmlns:xlink="http://www.w3.org/1999/xlink" version="1.1" width="1000" height="1000" viewBox="0 0 1000 1000" xml:space="preserve">
<desc>Created with Fabric.js 3.5.0</desc>
<defs>
</defs>
<rect x="0" y="0" width="100%" height="100%" fill="#ffffff"/>
<g transform="matrix(33.3333 0 0 33.3333 499.9997 499.9997)" id="607957">
<path style="stroke: none; stroke-width: 1; stroke-dasharray: none; stroke-linecap: butt; stroke-dashoffset: 0; stroke-linejoin: miter; stroke-miterlimit: 4; is-custom-font: none; font-file-url: none; fill: rgb(161,115,251); fill-rule: evenodd; opacity: 1;" vector-effect="non-scaling-stroke" transform=" translate(-12, -12)" d="M 8 9 C 8 6.79086 9.79086 5 12 5 C 14.2091 5 16 6.79086 16 9 C 16 11.2091 14.2091 13 12 13 C 9.79086 13 8 11.2091 8 9 Z M 15.8243 13.6235 C 17.1533 12.523 18 10.8604 18 9 C 18 5.68629 15.3137 3 12 3 C 8.68629 3 6 5.68629 6 9 C 6 10.8604 6.84668 12.523 8.17572 13.6235 C 4.98421 14.7459 3 17.2474 3 20 C 3 20.5523 3.44772 21 4 21 C 4.55228 21 5 20.5523 5 20 C 5 17.7306 7.3553 15 12 15 C 16.6447 15 19 17.7306 19 20 C 19 20.5523 19.4477 21 20 21 C 20.5523 21 21 20.5523 21 20 C 21 17.2474 19.0158 14.7459 15.8243 13.6235 Z" stroke-linecap="round"/>
</g>
</svg>