<svg xmlns="http://www.w3.org/2000/svg" xmlns:xlink="http://www.w3.org/1999/xlink" version="1.1" width="1000" height="1000" viewBox="0 0 1000 1000" xml:space="preserve">
<desc>Created with Fabric.js 3.5.0</desc>
<defs>
</defs>
<rect x="0" y="0" width="100%" height="100%" fill="#ffffff"/>
<g transform="matrix(0.2857 0 0 0.2857 449.999 449.999)" id="195906">
<g style="" vector-effect="non-scaling-stroke">
		<g transform="matrix(5.8333 0 0 5.8333 0.004 -14.5544)" id="SVGRepo_tracerCarrier">
<path style="stroke: rgb(255,255,255); stroke-width: 1.5; stroke-dasharray: none; stroke-linecap: round; stroke-dashoffset: 0; stroke-linejoin: round; stroke-miterlimit: 4; is-custom-font: none; font-file-url: none; fill: none; fill-rule: nonzero; opacity: 0.4;" transform=" translate(-12.0007, -9.505)" d="M 12.1207 12.78 C 12.0507 12.77 11.9607 12.77 11.8807 12.78 C 10.1207 12.72 8.7207 11.28 8.7207 9.50998 C 8.7207 7.69998 10.1807 6.22998 12.0007 6.22998 C 13.8107 6.22998 15.2807 7.69998 15.2807 9.50998 C 15.2707 11.28 13.8807 12.72 12.1207 12.78 Z" stroke-linecap="round"/>
</g>
		<g transform="matrix(5.8333 0 0 5.8333 -0.0015 39.1859)" id="SVGRepo_tracerCarrier">
<path style="stroke: rgb(255,255,255); stroke-width: 1.5; stroke-dasharray: none; stroke-linecap: round; stroke-dashoffset: 0; stroke-linejoin: round; stroke-miterlimit: 4; is-custom-font: none; font-file-url: none; fill: none; fill-rule: nonzero; opacity: 0.34;" transform=" translate(-11.9998, -18.7176)" d="M 18.7398 19.3801 C 16.9598 21.0101 14.5998 22.0001 11.9998 22.0001 C 9.39977 22.0001 7.03977 21.0101 5.25977 19.3801 C 5.35977 18.4401 5.95977 17.5201 7.02977 16.8001 C 9.76977 14.9801 14.2498 14.9801 16.9698 16.8001 C 18.0398 17.5201 18.6398 18.4401 18.7398 19.3801 Z" stroke-linecap="round"/>
</g>
		<g transform="matrix(5.8333 0 0 5.8333 -0.0003 -0.0003)" id="SVGRepo_tracerCarrier">
<path style="stroke: rgb(255,255,255); stroke-width: 1.5; stroke-dasharray: none; stroke-linecap: round; stroke-dashoffset: 0; stroke-linejoin: round; stroke-miterlimit: 4; is-custom-font: none; font-file-url: none; fill: none; fill-rule: nonzero; opacity: 1;" transform=" translate(-12, -12)" d="M 12 22 C 17.5228 22 22 17.5228 22 12 C 22 6.47715 17.5228 2 12 2 C 6.47715 2 2 6.47715 2 12 C 2 17.5228 6.47715 22 12 22 Z" stroke-linecap="round"/>
</g>
		<g transform="matrix(5.8333 0 0 5.8333 0.0038 -14.5545)" id="SVGRepo_iconCarrier">
<path style="stroke: rgb(255,255,255); stroke-width: 0.0002; stroke-dasharray: none; stroke-linecap: round; stroke-dashoffset: 0; stroke-linejoin: round; stroke-miterlimit: 4; is-custom-font: none; font-file-url: none; fill: none; fill-rule: nonzero; opacity: 0.4;" transform=" translate(-12.0007, -9.505)" d="M 12.1207 12.78 C 12.0507 12.77 11.9607 12.77 11.8807 12.78 C 10.1207 12.72 8.7207 11.28 8.7207 9.50998 C 8.7207 7.69998 10.1807 6.22998 12.0007 6.22998 C 13.8107 6.22998 15.2807 7.69998 15.2807 9.50998 C 15.2707 11.28 13.8807 12.72 12.1207 12.78 Z" stroke-linecap="round"/>
</g>
		<g transform="matrix(5.8333 0 0 5.8333 -0.0016 39.1858)" id="SVGRepo_iconCarrier">
<path style="stroke: rgb(255,255,255); stroke-width: 0.0002; stroke-dasharray: none; stroke-linecap: round; stroke-dashoffset: 0; stroke-linejoin: round; stroke-miterlimit: 4; is-custom-font: none; font-file-url: none; fill: none; fill-rule: nonzero; opacity: 0.34;" transform=" translate(-11.9998, -18.7176)" d="M 18.7398 19.3801 C 16.9598 21.0101 14.5998 22.0001 11.9998 22.0001 C 9.39977 22.0001 7.03977 21.0101 5.25977 19.3801 C 5.35977 18.4401 5.95977 17.5201 7.02977 16.8001 C 9.76977 14.9801 14.2498 14.9801 16.9698 16.8001 C 18.0398 17.5201 18.6398 18.4401 18.7398 19.3801 Z" stroke-linecap="round"/>
</g>
		<g transform="matrix(5.8333 0 0 5.8333 -0.0004 -0.0004)" id="SVGRepo_iconCarrier">
<path style="stroke: rgb(255,255,255); stroke-width: 0.0002; stroke-dasharray: none; stroke-linecap: round; stroke-dashoffset: 0; stroke-linejoin: round; stroke-miterlimit: 4; is-custom-font: none; font-file-url: none; fill: none; fill-rule: nonzero; opacity: 1;" transform=" translate(-12, -12)" d="M 12 22 C 17.5228 22 22 17.5228 22 12 C 22 6.47715 17.5228 2 12 2 C 6.47715 2 2 6.47715 2 12 C 2 17.5228 6.47715 22 12 22 Z" stroke-linecap="round"/>
</g>
</g>
</g>
<g transform="matrix(0.4082 0 0 0.4082 471.0018 471.0018)" id="457312">
<g style="" vector-effect="non-scaling-stroke">
		<g transform="matrix(0.1914 0 0 0.1914 -0.0016 -0.0011)" id="SVGRepo_iconCarrier">
<path style="stroke: none; stroke-width: 1; stroke-dasharray: none; stroke-linecap: butt; stroke-dashoffset: 0; stroke-linejoin: miter; stroke-miterlimit: 4; is-custom-font: none; font-file-url: none; fill: rgb(161,115,251); fill-rule: nonzero; opacity: 1;" transform=" translate(-255.9995, -255.9985)" d="M 256 390.764 c -140.262 0 -243.29 -122.112 -243.29 -122.112 c -5.871 -6.959 -5.871 -18.346 0 -25.307 c 0 0 103.029 -122.112 243.29 -122.112 s 243.289 122.112 243.289 122.112 c 5.871 6.961 5.871 18.348 0 25.307 C 499.29 268.653 396.262 390.764 256 390.764 z" stroke-linecap="round"/>
</g>
		<g transform="matrix(0.1914 0 0 0.1914 -0.002 0.0001)" id="SVGRepo_iconCarrier">
<circle style="stroke: none; stroke-width: 1; stroke-dasharray: none; stroke-linecap: butt; stroke-dashoffset: 0; stroke-linejoin: miter; stroke-miterlimit: 4; is-custom-font: none; font-file-url: none; fill: rgb(255,255,255); fill-rule: nonzero; opacity: 1;" cx="0" cy="0" r="103.744"/>
</g>
		<g transform="matrix(0.1914 0 0 0.1914 -0.0017 0.0004)" id="SVGRepo_iconCarrier">
<circle style="stroke: none; stroke-width: 1; stroke-dasharray: none; stroke-linecap: butt; stroke-dashoffset: 0; stroke-linejoin: miter; stroke-miterlimit: 4; is-custom-font: none; font-file-url: none; fill: rgb(51,62,72); fill-rule: nonzero; opacity: 1;" cx="0" cy="0" r="60.05"/>
</g>
		<g transform="matrix(0.1914 0 0 0.1914 9.3654 -8.3795)" id="SVGRepo_iconCarrier">
<circle style="stroke: none; stroke-width: 1; stroke-dasharray: none; stroke-linecap: butt; stroke-dashoffset: 0; stroke-linejoin: miter; stroke-miterlimit: 4; is-custom-font: none; font-file-url: none; fill: rgb(255,255,255); fill-rule: nonzero; opacity: 1;" cx="0" cy="0" r="22.073"/>
</g>
		<g transform="matrix(0.1914 0 0 0.1914 -0.0016 -0.0009)" id="SVGRepo_iconCarrier">
<path style="stroke: none; stroke-width: 1; stroke-dasharray: none; stroke-linecap: butt; stroke-dashoffset: 0; stroke-linejoin: miter; stroke-miterlimit: 4; is-custom-font: none; font-file-url: none; fill: rgb(30,37,43); fill-rule: nonzero; opacity: 1;" transform=" translate(-256.0003, -256)" d="M 505.616 238.008 c -1.079 -1.279 -26.946 -31.695 -70.603 -62.481 C 394.538 146.983 330.624 112.958 256 112.958 s -138.538 34.025 -179.013 62.569 c -43.657 30.788 -69.523 61.202 -70.603 62.482 c -8.511 10.09 -8.511 25.894 0 35.983 c 1.079 1.279 26.946 31.695 70.603 62.481 c 40.476 28.544 104.389 62.569 179.013 62.569 s 138.538 -34.025 179.013 -62.569 c 43.657 -30.788 69.523 -61.202 70.602 -62.481 C 514.128 263.903 514.128 248.099 505.616 238.008 z M 492.965 263.313 c -0.253 0.299 -25.831 30.322 -67.865 59.893 c -38.44 27.044 -98.982 59.282 -169.101 59.282 S 125.338 350.25 86.898 323.206 c -42.034 -29.571 -67.611 -59.593 -67.863 -59.891 c -3.288 -3.896 -3.287 -10.733 -0.002 -14.628 c 0.254 -0.299 25.831 -30.322 67.865 -59.893 c 38.439 -27.044 98.982 -59.282 169.101 -59.282 S 386.66 161.75 425.1 188.794 c 42.034 29.571 67.611 59.593 67.862 59.89 C 496.251 252.582 496.251 259.419 492.965 263.313 z M 255.997 143.974 c -61.771 0 -112.025 50.254 -112.025 112.026 s 50.253 112.026 112.025 112.026 c 61.771 0 112.025 -50.254 112.025 -112.026 S 317.767 143.974 255.997 143.974 z M 255.997 351.471 c -52.642 0 -95.47 -42.829 -95.47 -95.471 s 42.827 -95.471 95.47 -95.471 s 95.47 42.829 95.47 95.471 S 308.639 351.471 255.997 351.471 z" stroke-linecap="round"/>
</g>
</g>
</g>
</svg>